<svg xmlns="http://www.w3.org/2000/svg" width="220" height="72" viewBox="0 0 220 72">
    <defs>
        <clipPath id="clip-path">
            <path id="brand" d="M0 0H220V72H0z" class="cls-1" transform="translate(350 6106)"/>
        </clipPath>
        <style>
            .cls-1{fill:#fff}
        </style>
    </defs>
    <g id="brand-2" clip-path="url(#clip-path)" transform="translate(-350 -6106)">
        <g id="cazanova-b" transform="translate(349.998 6106)">
            <g id="Grupo_1360">
                <path id="Caminho_56136" d="M222.544 102.394c-.482-2.156-.892-4.326-1.349-6.489-2.115-10.015-4.251-20.027-6.333-30.049-.183-.885-.416-1.389-1.414-1.145a23.279 23.279 0 0 0-3.594.052l-.66.019a.92.92 0 0 0-.691.005c-1.79 0-3.581.017-5.371.005-.461 0-.629.174-.728.623-1.016 4.622-2.059 9.238-3.1 13.856l-.029.265c-.276 1.1-.574 2.2-.824 3.3-1.462 6.459-2.9 12.922-4.389 19.373-.2.844-.079 1.066.826 1.046 2.768-.06 5.54-.08 8.308-.01.907.023 1.163-.348 1.257-1.093.152-1.206.335-2.408.491-3.613.089-.695.307-1.116 1.178-1.076 1.569.073 3.144.037 4.715 0 .581-.013.768.187.822.75.126 1.319.367 2.627.495 3.947.083.859.454 1.187 1.3.942l1.8.055c2.276-.03 4.551-.069 6.827-.087.551.001.57-.192.463-.676zm-12.7-12.659c-1.188-.036-2.377-.042-3.566-.06a.347.347 0 0 0-.021-.207l.039-.162.044-.182.057-.24c.03-.127.057-.254.077-.383q.934-5.961 1.858-11.923l.192-.02 1.376 8.48q.057-.176.1-.351-.038.175-.1.351l.055.46.1.421.033.261c.1.945.16 1.9.328 2.833.1.539 0 .74-.567.723z" class="cls-1" transform="translate(-2.74 -44.598)"/>
                <path id="Caminho_56137" d="M192.235 64.839c-.313 0-.5.106-.487.44-.079.1-.106.2.007.3a13.582 13.582 0 0 0-.579 3.03l-.021.317q-1.025 5.872-2.048 11.746c-.451 2.614-.883 5.232-1.327 7.848-.048.278 0 .763-.5.281l-.126-.507c-.087-.655-.165-1.312-.264-1.965-1.04-6.882-2.1-13.761-3.1-20.648-.1-.7-.333-.82-.962-.808-2.695.048-5.391.056-8.085.07-1.736.009-1.736 0-1.364 1.69q3.94 17.923 7.872 35.847a.942.942 0 0 0 1.12.873c3.293-.069 6.588-.116 9.882-.092.822.006 1.157-.21 1.338-1.012 1.005-4.448 2.074-8.881 3.109-13.323q1.54-6.607 3.057-13.218a.41.41 0 0 0 .125-.442c-.017-.023-.029-.048-.044-.072.015.024.027.049.044.072l1.581-6.65.083-.541a20.939 20.939 0 0 0 .812-3.232c-3.409-.001-6.766 0-10.123-.004zm7.406 9.5a1.387 1.387 0 0 0 .01.376 1.387 1.387 0 0 1-.01-.376z" class="cls-1" transform="translate(-5.386 -44.576)"/>
                <path id="Caminho_56138" d="M176.136 78.686c-.464-3.531-1.4-6.934-3.791-9.76l-.028-.042c-.026-.189-.165-.262-.325-.314a6.413 6.413 0 0 0-2.328-2.139 3.445 3.445 0 0 0-1.576-.885.474.474 0 0 0-.464-.21 13.039 13.039 0 0 0-7-.885 11.1 11.1 0 0 0-6.982 3.071 2.215 2.215 0 0 0-.906.893 2.616 2.616 0 0 0-.9 1.107 2.5 2.5 0 0 0-.659.906 13.272 13.272 0 0 0-1.6 3.084c-1.753 4.6-1.968 9.379-1.681 14.214l.039.452a23.786 23.786 0 0 0 .788 4.993c.8 2.767 1.809 5.425 4.029 7.444a7.663 7.663 0 0 0 3.386 2.442 13.277 13.277 0 0 0 8.924.867l.3-.024a7.812 7.812 0 0 0 3.2-1.275.178.178 0 0 0 .171-.055c.145.022.206-.062.244-.18a6.373 6.373 0 0 0 2.223-1.792 4.368 4.368 0 0 0 1.409-1.725 17.96 17.96 0 0 0 3.346-8.9.8.8 0 0 0 .152-.68 40.33 40.33 0 0 0 .029-10.607zm-10.524 6.946a21.063 21.063 0 0 1-.864 6.78 2.674 2.674 0 0 1-2.4 2.022c-1.734.138-2.837-.89-3.254-3.078a43.468 43.468 0 0 1-.411-9.5 23.245 23.245 0 0 1 .631-5.49q.061-.226.133-.433c.026-.076.056-.146.084-.218s.044-.12.067-.175c.035-.083.074-.158.112-.235.019-.039.037-.082.057-.12.046-.086.1-.164.145-.242l.044-.073c.056-.084.116-.161.177-.236.011-.013.02-.03.03-.041a2.661 2.661 0 0 1 .2-.206l.03-.033a2.408 2.408 0 0 1 .232-.19l.014-.011a2.28 2.28 0 0 1 .26-.159h.006a3.631 3.631 0 0 1 2.872.028l-.007-.007.015.009h-.007c1.192 1.055 1.391 2.518 1.66 3.952l.1.539.061.777v.033c.006 1.578.034 3.156.03 4.734q-.002.784-.017 1.573z" class="cls-1" transform="translate(-8.615 -44.632)"/>
                <path id="Caminho_56139" d="M147.618 65.169l-.313.017a.217.217 0 0 0-.315 0 1.706 1.706 0 0 0-1.024 0c-2.354-.18-4.71.041-7.064-.02-.5-.013-.637.18-.63.646.023 1.511.009 3.022.01 4.534l-.014 1.121v12.8l-.471.044-1.6-5.151h.009l-3.735-13.379a.714.714 0 0 0-.815-.565q-4.656.033-9.311.023c-.426 0-.7.045-.7.582.015 1.951-.011 3.9-.022 5.855a9.482 9.482 0 0 0-.048 2.23q-.138 14.5-.287 29.008c-.007.667.258.785.865.775 2.619-.043 5.242-.084 7.861-.028.927.02 1.119-.288 1.118-1.13 0-5.2.047-10.41.083-15.615a2.7 2.7 0 0 1 .25-1.523c.755 1.374.832 2.895 1.506 4.206l.041.265 3.845 12.993a.98.98 0 0 0 1.127.781c2.772-.052 5.544-.1 8.312-.025 1.084.028 1.361-.27 1.367-1.335.064-12.074.183-24.147.278-36.221.013-.31.266-.765-.323-.888z" class="cls-1" transform="translate(-11.986 -44.546)"/>
                <path id="Caminho_56140" d="M122.675 102.916c-.4-1.606-.7-3.235-1.044-4.855l-.143-.462a4.543 4.543 0 0 0-.045-.657q-2.589-12.195-5.187-24.388a.434.434 0 0 0-.165-.451q-.6-3.076-1.194-6.152c-.094-.485-.375-.628-.867-.618-2.312.048-4.625.06-6.937.09-.213 0-.513-.03-.57.192-.037.144.147.372.279.523a3.766 3.766 0 0 0 .511.421l.65.909c.779 1.75.026 3.3-.655 4.857l-.487.658-.429.417-.237.227-.2.246c-.21.086-.221.26-.2.447a6.464 6.464 0 0 1-1.963 1.86 25.323 25.323 0 0 0-4.137 3.42 6.188 6.188 0 0 0-.707 2.7l-.14.448-3.617 15.685a15.129 15.129 0 0 0 4.941-1.472v.005a7.518 7.518 0 0 1 3.583-.06.176.176 0 0 0 .179.054l.724.633.006.011.178.254c.2 1.237-.478 2.28-.775 3.407a1.694 1.694 0 0 1-1.264 1.262c-1.191.368-2.365.79-3.545 1.189 1.492.122 2.952.1 4.412.131.532.01.8-.116.866-.7.159-1.352.423-2.691.587-4.042.084-.691.294-1.048 1.1-1.021 1.571.052 3.147.026 4.72-.021.628-.018.841.2.9.805.152 1.429.388 2.85.566 4.277.059.476.217.687.761.678 3-.05 5.993-.06 8.989-.08.619-.001.701-.243.556-.827zm-12.441-12.484q-.9-.08-1.795-.076c-.061 0-.124 0-.187.005-.536.008-1.072.035-1.607.09-.389-1.144.124-2.229.276-3.324.475-3.429 1.058-6.843 1.632-10.476a25.059 25.059 0 0 1 .747 4.249c.437 2.841.822 5.689 1.23 8.534.013.094.04.191.061.288a1.147 1.147 0 0 1 .039.282c0 .179-.091.335-.4.427z" class="cls-1" transform="translate(-15.306 -44.521)"/>
                <path id="Caminho_56141" d="M76.8 61.084c1.584.109 3.225-.361 4.748.447a1.481 1.481 0 0 0 .775.03c7.442-.763 14.631.521 21.744 2.534 1.371.388 2.656.958 3.976 1.453 1.9.711 3.41 2.873 3.276 4.536a3.315 3.315 0 0 1-.685 1.732c-1.066 1.405-1.769 3.086-3.333 4.127-1.077.717-2.041 1.6-3.062 2.4s-1.87 1.822-3.264 2.058a1.58 1.58 0 0 0-.835.533c-2.079 2.427-4.971 3.83-7.459 5.738a59.3 59.3 0 0 1-5.657 3.953 2.382 2.382 0 0 1-1.024.38 1.665 1.665 0 0 0-1.232.679c-1.491 1.959-3.647 3.09-5.654 4.41a57.112 57.112 0 0 0-8.054 6.406c-.167.159-.312.358-.183.585s.4.183.606.14c2.225-.456 4.484.034 6.711-.232.953-.114 1.8.5 2.764.27a18.074 18.074 0 0 1 2.492-.592 78.664 78.664 0 0 0 9.426-1.112c4.1-.9 8.346-1.236 12.3-2.819.74-.3 1.66-.969 2.391-.245.705.7-.036 1.562-.18 2.354a2.121 2.121 0 0 1-1.929 1.712c-1.779.388-3.471 1.155-5.361 1.069-.934-.043-1.587.755-2.433 1.045a9.765 9.765 0 0 1-2.719.6 7.6 7.6 0 0 0-3.018.728 11.061 11.061 0 0 1-4.778 1.07c-1.731.01-3.16.815-4.758 1.127-2.791.544-5.627.616-8.43 1-1.7.23-3.4.434-5.083.727a26.151 26.151 0 0 1-8.033.111 6.824 6.824 0 0 1-3.472-1.62c-1.093-.9-.938-3.312.258-4.36a55.433 55.433 0 0 1 6.34-4.884c1.236-.8 2.547-1.491 3.836-2.21a21.661 21.661 0 0 0 2.583-1.906c3.737-2.879 7.848-5.238 11.557-8.14C86.433 83.4 91.126 80.13 95.269 76.2a17.905 17.905 0 0 0 3.333-4c.652-1.134.514-1.611-.731-1.97a38.113 38.113 0 0 0-6.348-1.257c-2.334-.262-4.762.192-6.975-.478-2.421-.733-4.732.05-7.085-.138-3.282-.263-6.568.128-9.853.035-.581-.017-1.161 0-1.388-.668a1.409 1.409 0 0 1 .367-1.7 8.642 8.642 0 0 1 1.933-1.657c.7-.317.465-1.165 1.033-1.634a7.954 7.954 0 0 1 4.991-1.64c.754-.035 1.504-.009 2.254-.009z" class="cls-1" transform="translate(-20.211 -45)"/>
                <path id="Caminho_56142" d="M132.225 66.676a2.632 2.632 0 0 0-1.082-.836q-3.808-1.748-7.625-3.475-4.889-2.2-9.788-4.368c-3.537-1.754-7.149-3.348-10.785-4.888a58.361 58.361 0 0 0-6.319-2.871.062.062 0 0 0-.034-.049.064.064 0 0 0-.06 0c-2.416-1.342-5.018-2.3-7.5-3.493a1.053 1.053 0 0 0-.967.058c-1.475.765-3.068 1.292-4.484 2.173l-.433.193c-3.01 1.366-6.026 2.719-9.029 4.1q-5.425 2.5-10.829 5.034c-3.43 1.617-6.943 3.062-10.29 4.855-.178 0-.351 0-.441.194-2.684 1.042-5.23 2.36-7.787 3.653a11.845 11.845 0 0 0 3.064.09l3.366-.018c4.641-.019 9.285-.136 13.922-.01 1.829.05 2.7-1.057 3.569-2.165a7.31 7.31 0 0 1 2.555-2.22 11.544 11.544 0 0 1 5.243-.957 48.294 48.294 0 0 1 7.228.251c1.671.267 3.585-.1 5.413-.017A96.689 96.689 0 0 1 100.8 63.3a52.383 52.383 0 0 1 9.31 2.716l-.006-.006a3.717 3.717 0 0 0 1.837.67q10.143-.006 20.284-.004z" class="cls-1" transform="translate(-21.719 -46.613)"/>
                <path id="Caminho_56143" d="M71.85 90.842c-.573-1.848-.819-3.793-1.225-5.692-.642-3-1.161-6.027-1.983-8.988l.024-.055-.044-.041c-.285-2.378-.934-4.687-1.391-7.03a.449.449 0 0 0-.4-.333A2.361 2.361 0 0 1 65.6 66.3c.119-.777-.25-.661-.709-.656-3.147.027-6.294.1-9.44.038-.858-.016-1.078.317-1.231 1q-2.2 9.809-4.43 19.613-1.926 8.515-3.861 17.028c-.15.655-.046.915.717.9 2.883-.06 5.768-.071 8.65-.072.616 0 .926-.108.992-.828.125-1.356.461-2.693.59-4.049.067-.713.363-.844.991-.82.973.037 1.949-.04 2.921.013a5.318 5.318 0 0 0 3.965-1.074 7.806 7.806 0 0 1 2.126-1.316c1.42-.524 2.345-1.644 3.554-2.4l.219-.29a1.776 1.776 0 0 0 1.196-2.545zm-12.217.458a3.591 3.591 0 0 0 .53.037 3.59 3.59 0 0 1-.531-.037zm2.454-.582l-3.587.011c-.323-.144-.25-.421-.212-.668.667-4.329 1.34-8.657 2.179-12.985.541 3.745 1.107 7.487 1.6 11.239a7.9 7.9 0 0 0 .217.894 1.584 1.584 0 0 1-.2 1.51z" class="cls-1" transform="translate(-21.58 -44.487)"/>
                <path id="Caminho_56144" d="M44.989 65.844a20.17 20.17 0 0 0-4.742-.674 12.012 12.012 0 0 0-6.723 1.569v-.007a6.479 6.479 0 0 0-2.516 1.73l-.013.01a5.046 5.046 0 0 0-1.7 1.636l-.316.374c.292.845-.433 1.236-.828 1.8.394-.566 1.119-.957.827-1.8a15.517 15.517 0 0 0-3 5.2l-.077.348a9.2 9.2 0 0 0-.387.9 30 30 0 0 0-.85 13.092 16.718 16.718 0 0 0 2.617 7.619l.168.276h-.011a5.286 5.286 0 0 0 1.323 1.783 1.1 1.1 0 0 0 .518.625c.179.282.634.251.731.626-.046.154.044.214.174.246l.34.312.037.027a7.349 7.349 0 0 0 2.34 1.63 13.087 13.087 0 0 0 12.362.678l.03-.011c.743-.048.5-.629.513-1.007.057-2.358.079-4.717.11-7.076.006-.488 0-.977 0-1.618a11.714 11.714 0 0 1-2.883 1.1l-.466.123a5.47 5.47 0 0 1-5.629-3.012A12.864 12.864 0 0 1 35.6 87.37a28.351 28.351 0 0 1 .469-7.7l.161-.453.467-1.114a5.757 5.757 0 0 1 4.747-3.815l1.584.005 1.354.257h.012c.33.158.662.31.988.474.417.21.69.2.682-.368-.02-1.417-.026-2.833-.038-4.25a5.014 5.014 0 0 0 .037-1.833 7.787 7.787 0 0 1 .075-1.316c.217-.978-.314-1.202-1.149-1.413z" class="cls-1" transform="translate(-24.32 -44.54)"/>
            </g>
            <g id="Grupo_1361" transform="translate(117.265 61.04)">
                <path id="Caminho_56145" d="M128.353 109.04l1.645-.158a1.968 1.968 0 0 0 .6 1.2 1.837 1.837 0 0 0 1.225.383 1.9 1.9 0 0 0 1.231-.341 1.01 1.01 0 0 0 .414-.8.745.745 0 0 0-.174-.5 1.4 1.4 0 0 0-.609-.358q-.3-.1-1.353-.361a4.623 4.623 0 0 1-1.907-.817 2.136 2.136 0 0 1-.771-1.661 2.1 2.1 0 0 1 .362-1.18 2.265 2.265 0 0 1 1.045-.836 4.236 4.236 0 0 1 1.647-.287 3.568 3.568 0 0 1 2.372.681 2.391 2.391 0 0 1 .836 1.819l-1.69.073a1.409 1.409 0 0 0-.465-.915 1.722 1.722 0 0 0-1.071-.278 1.952 1.952 0 0 0-1.154.3.6.6 0 0 0-.268.513.631.631 0 0 0 .251.5 4.484 4.484 0 0 0 1.553.552 8.26 8.26 0 0 1 1.824.594 2.338 2.338 0 0 1 .925.839 2.569 2.569 0 0 1-.066 2.644 2.388 2.388 0 0 1-1.131.921 4.8 4.8 0 0 1-1.821.3 3.655 3.655 0 0 1-2.437-.723 3.132 3.132 0 0 1-1.013-2.104z" class="cls-1" transform="translate(-128.353 -101.315)"/>
                <path id="Caminho_56146" d="M135.644 103.456h1.69v4.471a9.155 9.155 0 0 0 .063 1.379 1.335 1.335 0 0 0 .518.814 1.818 1.818 0 0 0 1.116.307 1.72 1.72 0 0 0 1.085-.29 1.145 1.145 0 0 0 .44-.712 9.189 9.189 0 0 0 .074-1.4v-4.566h1.69v4.336a10.994 10.994 0 0 1-.137 2.1 2.311 2.311 0 0 1-.505 1.036 2.556 2.556 0 0 1-.985.673 4.34 4.34 0 0 1-1.61.251 4.7 4.7 0 0 1-1.819-.273 2.6 2.6 0 0 1-.979-.71 2.264 2.264 0 0 1-.474-.915 9.891 9.891 0 0 1-.165-2.095z" class="cls-1" transform="translate(-127.427 -101.3)"/>
                <path id="Caminho_56147" d="M150.789 111.711h-1.839l-.731-1.875h-3.346l-.691 1.875h-1.792l3.259-8.256h1.787zm-3.112-3.266l-1.153-3.064-1.131 3.064z" class="cls-1" transform="translate(-126.568 -101.3)"/>
                <path id="Caminho_56148" d="M158.523 108.692l1.639.512a3.618 3.618 0 0 1-1.253 2.008 3.985 3.985 0 0 1-4.965-.467 4.263 4.263 0 0 1-1.074-3.072 4.474 4.474 0 0 1 1.079-3.2 3.727 3.727 0 0 1 2.838-1.142 3.511 3.511 0 0 1 2.5.9 3.245 3.245 0 0 1 .856 1.52l-1.673.394a1.724 1.724 0 0 0-1.765-1.385 1.917 1.917 0 0 0-1.51.659 3.2 3.2 0 0 0-.579 2.133 3.427 3.427 0 0 0 .571 2.23 1.866 1.866 0 0 0 1.485.665 1.707 1.707 0 0 0 1.159-.422 2.442 2.442 0 0 0 .7-1.326z" class="cls-1" transform="translate(-125.235 -101.316)"/>
                <path id="Caminho_56149" d="M168.271 111.711h-1.839l-.731-1.875h-3.346l-.691 1.875h-1.793l3.259-8.256h1.787zm-3.11-3.266l-1.153-3.064-1.131 3.064z" class="cls-1" transform="translate(-124.344 -101.3)"/>
                <path id="Caminho_56150" d="M167.738 109.04l1.645-.158a1.97 1.97 0 0 0 .6 1.2 1.837 1.837 0 0 0 1.225.383 1.9 1.9 0 0 0 1.23-.341 1.01 1.01 0 0 0 .414-.8.744.744 0 0 0-.174-.5 1.4 1.4 0 0 0-.609-.358q-.3-.1-1.353-.361a4.623 4.623 0 0 1-1.907-.817 2.136 2.136 0 0 1-.771-1.661 2.1 2.1 0 0 1 .363-1.18 2.265 2.265 0 0 1 1.045-.836 4.237 4.237 0 0 1 1.647-.287 3.568 3.568 0 0 1 2.372.681 2.391 2.391 0 0 1 .837 1.819l-1.69.073a1.409 1.409 0 0 0-.465-.915 1.724 1.724 0 0 0-1.071-.278 1.952 1.952 0 0 0-1.153.3.6.6 0 0 0-.268.513.631.631 0 0 0 .251.5 4.483 4.483 0 0 0 1.553.552 8.264 8.264 0 0 1 1.824.594 2.337 2.337 0 0 1 .925.839 2.569 2.569 0 0 1-.066 2.644 2.387 2.387 0 0 1-1.13.921 4.8 4.8 0 0 1-1.821.3 3.655 3.655 0 0 1-2.437-.723 3.131 3.131 0 0 1-1.016-2.104z" class="cls-1" transform="translate(-123.344 -101.315)"/>
                <path id="Caminho_56151" d="M182.682 111.711h-1.839l-.731-1.875h-3.346l-.691 1.875h-1.793l3.259-8.256h1.787zm-3.112-3.266l-1.154-3.064-1.13 3.064z" class="cls-1" transform="translate(-122.511 -101.3)"/>
                <path id="Caminho_56152" d="M185.027 111.929v-8.257h6.206v1.4h-4.516v1.83h4.2v1.391h-4.2v2.247h4.676v1.391zm2.147-8.729l.788-1.684h1.8l-1.57 1.684z" class="cls-1" transform="translate(-121.144 -101.516)"/>
                <path id="Caminho_56153" d="M202.088 111.711h-1.838l-.731-1.875h-3.345l-.691 1.875h-1.793l3.259-8.256h1.787zm-3.113-3.266l-1.153-3.064-1.131 3.064z" class="cls-1" transform="translate(-120.042 -101.3)"/>
                <path id="Caminho_56154" d="M208.712 110.678a5.54 5.54 0 0 0 1.353.7l-.622 1.177a3.88 3.88 0 0 1-.748-.31q-.08-.039-1.125-.732a4.547 4.547 0 0 1-1.821.355 4.028 4.028 0 0 1-3.023-1.121 5.069 5.069 0 0 1 0-6.293 3.965 3.965 0 0 1 2.975-1.124 3.924 3.924 0 0 1 2.952 1.124 4.326 4.326 0 0 1 1.09 3.145 5.366 5.366 0 0 1-.3 1.881 3.9 3.9 0 0 1-.731 1.198zm-1.359-.941a2.484 2.484 0 0 0 .487-.912 4.224 4.224 0 0 0 .16-1.225 3.1 3.1 0 0 0-.64-2.137 2.334 2.334 0 0 0-3.349 0 3.09 3.09 0 0 0-.642 2.133 3.163 3.163 0 0 0 .642 2.165 2.084 2.084 0 0 0 1.624.718 2.011 2.011 0 0 0 .691-.118 4.909 4.909 0 0 0-1.045-.518l.474-.952a5.768 5.768 0 0 1 1.594.846z" class="cls-1" transform="translate(-119.032 -101.314)"/>
                <path id="Caminho_56155" d="M210 103.456h1.69v4.471a9.156 9.156 0 0 0 .063 1.379 1.334 1.334 0 0 0 .518.814 1.818 1.818 0 0 0 1.116.307 1.72 1.72 0 0 0 1.085-.29 1.144 1.144 0 0 0 .44-.712 9.171 9.171 0 0 0 .074-1.4v-4.566h1.69v4.336a10.97 10.97 0 0 1-.137 2.1 2.311 2.311 0 0 1-.505 1.036 2.552 2.552 0 0 1-.985.673 4.339 4.339 0 0 1-1.61.251 4.7 4.7 0 0 1-1.819-.273 2.6 2.6 0 0 1-.979-.71 2.265 2.265 0 0 1-.474-.915 9.887 9.887 0 0 1-.167-2.097z" class="cls-1" transform="translate(-117.969 -101.3)"/>
                <path id="Caminho_56156" d="M217.451 111.711v-8.256h1.69v8.256z" class="cls-1" transform="translate(-117.02 -101.3)"/>
            </g>
        </g>
    </g>
</svg>
