<svg xmlns="http://www.w3.org/2000/svg" width="240" height="240" viewBox="0 0 240 240">
    <defs>
        <clipPath>
            <path d="M0 0H240V240H0z" transform="translate(55 104)"/>
        </clipPath>
        <style>
            .cls-4{fill:#afd3d6}.cls-5{fill:#c3dee0}.cls-6{fill:#8bbfc3}.cls-14{fill:#c6e0e1}.cls-19{fill:#0378a6}
        </style>
    </defs>
    <g transform="translate(-55 -104)" style="isolation:isolate;mix-blend-mode:luminosity" clip-path="url(#clip-path)">
        <g transform="translate(-539.968 -10.059)" style="isolation:isolate" opacity="0.71">
            <ellipse cx="74.5" cy="32.5" fill="#edf7f8" rx="74.5" ry="32.5" transform="rotate(2.98 -4761.23 12348.87)"/>
            <g transform="translate(651.703 226.791)">
                <g transform="translate(93.976 51.106)">
                    <path d="M778.824 308.772a12.687 12.687 0 0 0-5.677-9.978c-1.658-.971-3.15-1.019-4.2-.325l-3.886 2.186L773.2 314.7l3.852-2.183-.005-.009c1.082-.581 1.765-1.868 1.777-3.736z" class="cls-4" transform="translate(-763.35 -297.999)"/>
                    <path d="M768.816 301.476a12.689 12.689 0 0 1 5.677 9.978c-.023 3.66-2.6 5.128-5.761 3.278a12.685 12.685 0 0 1-5.677-9.978c.023-3.662 2.602-5.129 5.761-3.278z" class="cls-5" transform="translate(-763.055 -298.393)"/>
                    <path d="M767.494 307.765c.009-1.431.883-2.083 1.952-1.457a4.652 4.652 0 0 1 1.919 3.725c-.008 1.431-.883 2.084-1.952 1.457a4.651 4.651 0 0 1-1.919-3.725z" class="cls-6" transform="translate(-763.708 -299.187)"/>
                    <path fill="#8bbfc3" d="M774.493 311.663a10.616 10.616 0 0 0-.779-3.84l-9.864-5.723a4.911 4.911 0 0 0-.795 2.866v.136l11.429 6.635c.005-.027.009-.049.009-.074z" opacity="0.15" transform="translate(-763.055 -298.602)"/>
                </g>
                <g>
                    <path d="M721.479 331.159a12.293 12.293 0 0 1-6.069-1.088L661.642 299.1c-3.25-1.633-6.9-5.884-7.122-9.905l-1.655-38.3 2.994-.169 1.655 38.3c.154 2.734 3.016 6.158 5.471 7.393l53.768 30.971a10.318 10.318 0 0 0 9.027-.521l35.856-20.657c.857-.564 1.35-1.238 1.318-1.8s-.571-1.142-1.478-1.6L703.914 269.4c-3.243-1.632-6.878-5.883-7.105-9.909l-.8-21.242 2.994-.169.8 21.242c.154 2.74 3.006 6.165 5.452 7.4l57.561 33.416a5.044 5.044 0 0 1 3.13 4.107 5.162 5.162 0 0 1-2.665 4.482l-35.856 20.657a12.321 12.321 0 0 1-5.946 1.775z" class="cls-5" transform="translate(-652.865 -238.076)"/>
                </g>
                <g transform="translate(43.473 81.449)">
                    <path d="M719.6 344.351a12.686 12.686 0 0 0-5.677-9.979c-1.658-.971-3.15-1.018-4.2-.324l-3.886 2.185 8.144 14.042 3.852-2.183-.005-.01c1.082-.576 1.765-1.863 1.772-3.731z" class="cls-4" transform="translate(-704.133 -333.577)"/>
                    <path d="M709.6 337.056a12.691 12.691 0 0 1 5.677 9.979c-.023 3.66-2.6 5.128-5.761 3.278a12.685 12.685 0 0 1-5.677-9.979c.023-3.661 2.602-5.128 5.761-3.278z" class="cls-5" transform="translate(-703.839 -333.972)"/>
                    <path d="M708.274 343.344c.009-1.431.884-2.083 1.953-1.457a4.656 4.656 0 0 1 1.92 3.725c-.009 1.431-.884 2.084-1.953 1.457a4.654 4.654 0 0 1-1.92-3.725z" class="cls-6" transform="translate(-704.491 -334.765)"/>
                </g>
                <g transform="translate(3.773 58.537)">
                    <path d="M673.049 317.5a12.691 12.691 0 0 0-5.659-9.99c-1.656-.974-3.148-1.024-4.2-.332l-3.889 2.178 8.118 14.057 3.855-2.176-.005-.009c1.079-.574 1.764-1.86 1.78-3.728z" class="cls-4" transform="translate(-657.584 -306.712)"/>
                    <path d="M663.057 310.187a12.689 12.689 0 0 1 5.658 9.99c-.03 3.66-2.611 5.123-5.767 3.266a12.688 12.688 0 0 1-5.659-9.99c.031-3.66 2.611-5.123 5.768-3.266z" class="cls-5" transform="translate(-657.289 -307.105)"/>
                    <path d="M661.72 316.471c.012-1.43.887-2.081 1.956-1.452a4.652 4.652 0 0 1 1.912 3.729c-.011 1.431-.887 2.081-1.955 1.453a4.658 4.658 0 0 1-1.913-3.73z" class="cls-6" transform="translate(-657.941 -307.899)"/>
                </g>
            </g>
            <g transform="translate(644.968 161.381)">
                <path d="M645.322 193.189a9.976 9.976 0 0 1 3.829-10.624l35.743-20.2c3.251-2.13 6.8-.651 7.949 3.063l2.478 8.044-2.451 1.428-2.655-8.126a2.7 2.7 0 0 0-4.281-1.5l-34.805 19.68a6.562 6.562 0 0 0-2.5 6.86l2.1 7.717-2.924 1.7z" class="cls-5" transform="translate(-644.968 -161.381)"/>
            </g>
            <g transform="translate(647.801 173.469)">
                <g fill="#9dc9cd" transform="translate(4.769 58.48)">
                    <path d="M701.9 244.124l-48.014 27.721 70.175 40.515 48.013-27.73z" transform="translate(-653.881 -244.124)"/>
                    <path d="M701.9 244.124l-48.014 27.721 70.175 40.515 48.013-27.73z" opacity="0.5" transform="translate(-653.881 -244.124)"/>
                </g>
                <g fill="#b4d6d9">
                    <path d="M648.289 203.318l47.521-27.763 5.262 58.48-48.014 27.721z" transform="translate(-648.289 -175.555)"/>
                    <path d="M648.289 203.318l47.521-27.763 5.262 58.48-48.014 27.721z" opacity="0.35" transform="translate(-648.289 -175.555)"/>
                </g>
                <g fill="#c0dcde" transform="translate(47.522)">
                    <path d="M704.01 175.555l5.261 58.479 70.174 40.506 11.08-49.04zm24.533 56.221a4.021 4.021 0 0 1-5.029-2.605l-11.6-30.1a3.784 3.784 0 1 1 7.01-2.7l11.6 30.1a4.02 4.02 0 0 1-1.981 5.305zm21.911 10.309a4.02 4.02 0 0 1-5.028-2.605l-11.6-30.1a3.783 3.783 0 1 1 7.01-2.7l11.6 30.1a4.019 4.019 0 0 1-1.982 5.305zm21.912 10.309a4.021 4.021 0 0 1-5.029-2.605l-11.6-30.1a3.784 3.784 0 1 1 7.01-2.7l11.6 30.1a4.02 4.02 0 0 1-1.981 5.306z" transform="translate(-704.01 -175.555)"/>
                    <path d="M704.01 175.555l5.261 58.479 70.174 40.506 11.08-49.04zm24.533 56.221a4.021 4.021 0 0 1-5.029-2.605l-11.6-30.1a3.784 3.784 0 1 1 7.01-2.7l11.6 30.1a4.02 4.02 0 0 1-1.981 5.305zm21.911 10.309a4.02 4.02 0 0 1-5.028-2.605l-11.6-30.1a3.783 3.783 0 1 1 7.01-2.7l11.6 30.1a4.019 4.019 0 0 1-1.982 5.305zm21.912 10.309a4.021 4.021 0 0 1-5.029-2.605l-11.6-30.1a3.784 3.784 0 1 1 7.01-2.7l11.6 30.1a4.02 4.02 0 0 1-1.981 5.306z" opacity="0.23" transform="translate(-704.01 -175.555)"/>
                </g>
                <g transform="translate(0 27.763)">
                    <g>
                        <path d="M648.29 208.108l4.768 58.438 70.175 40.515 11.079-49.044zm27.7 57.523a4.02 4.02 0 0 1-5.029-2.6l-11.6-30.1a3.784 3.784 0 1 1 7.01-2.7l11.6 30.1a4.019 4.019 0 0 1-1.981 5.3zm21.91 10.31a4.019 4.019 0 0 1-5.028-2.6l-11.6-30.1a3.784 3.784 0 1 1 7.01-2.7l11.6 30.1a4.019 4.019 0 0 1-1.982 5.3zm21.912 10.309a4.02 4.02 0 0 1-5.029-2.605l-11.6-30.1a3.784 3.784 0 1 1 7.01-2.7l11.6 30.1a4.02 4.02 0 0 1-1.981 5.305z" class="cls-14" transform="translate(-648.29 -208.108)"/>
                    </g>
                    <g opacity="0.15">
                        <path d="M648.29 208.108l4.768 58.438 70.175 40.515 11.079-49.044zm27.7 57.523a4.02 4.02 0 0 1-5.029-2.6l-11.6-30.1a3.784 3.784 0 1 1 7.01-2.7l11.6 30.1a4.019 4.019 0 0 1-1.981 5.3zm21.91 10.31a4.019 4.019 0 0 1-5.028-2.6l-11.6-30.1a3.784 3.784 0 1 1 7.01-2.7l11.6 30.1a4.019 4.019 0 0 1-1.982 5.3zm21.912 10.309a4.02 4.02 0 0 1-5.029-2.605l-11.6-30.1a3.784 3.784 0 1 1 7.01-2.7l11.6 30.1a4.02 4.02 0 0 1-1.981 5.305z" class="cls-14" transform="translate(-648.29 -208.108)"/>
                    </g>
                    <g fill="#aed3d5" transform="translate(74.943 22.187)">
                        <path d="M747.243 261.844l48.014-27.721-11.08 49.045-48.014 27.721z" transform="translate(-736.163 -234.123)"/>
                        <path d="M747.243 261.844l48.014-27.721-11.08 49.045-48.014 27.721z" opacity="0.4" transform="translate(-736.163 -234.123)"/>
                    </g>
                </g>
            </g>
            <g opacity="0.27" transform="rotate(33 170.153 1282.106)">
                <path d="M5.324.895A2.979 2.979 0 0 0 3.13 0 3.049 3.049 0 0 0 .915.891 2.95 2.95 0 0 0 0 3.085 3.02 3.02 0 0 0 .915 5.3a3.02 3.02 0 0 0 2.215.915A2.946 2.946 0 0 0 5.324 5.3a3.047 3.047 0 0 0 .894-2.215 2.978 2.978 0 0 0-.894-2.19z" class="cls-19" transform="rotate(-8 203.874 -354.888)"/>
                <path d="M12.919 1A9.6 9.6 0 0 0 8.49 0a8.141 8.141 0 0 0-5.5 1.871A9.7 9.7 0 0 0 0 6.184L4.063 7.89a6.267 6.267 0 0 1 1.584-2.58 3.938 3.938 0 0 1 2.885-1.076 4.117 4.117 0 0 1 2.948 1.015 3.412 3.412 0 0 1 1.076 2.6 3.642 3.642 0 0 1-.63 2.151 14.736 14.736 0 0 1-2.051 2.194 13.123 13.123 0 0 0-2.8 3.169 6.56 6.56 0 0 0-.772 3.25v1.667h4.507V19.1a4.8 4.8 0 0 1 .549-2.316 8.982 8.982 0 0 1 1.886-2.235 19.845 19.845 0 0 0 2.742-3.149 6.375 6.375 0 0 0 1.036-3.677A7.347 7.347 0 0 0 12.919 1z" class="cls-19" transform="rotate(-8 38.32 -304.485)"/>
                <path d="M878.645 160.813h-3.6v-3.6a1.2 1.2 0 0 0-2.4 0v3.6h-3.6a1.2 1.2 0 0 0 0 2.4h3.6v3.592a1.2 1.2 0 1 0 2.4 0v-3.6h3.6a1.2 1.2 0 1 0 0-2.4z" class="cls-19" transform="translate(-850.236 -131.032)"/>
                <path d="M942.04 166.613a1.2 1.2 0 0 0 0-1.694l-2.543-2.543 2.546-2.546a1.2 1.2 0 1 0-1.7-1.694l-2.545 2.545-2.546-2.545a1.2 1.2 0 1 0-1.694 1.694l2.545 2.546-2.543 2.543a1.2 1.2 0 0 0 1.7 1.694l2.543-2.542 2.543 2.542a1.2 1.2 0 0 0 1.694 0z" class="cls-19" transform="translate(-863.526 -131.391)"/>
                <path d="M859.46 181.738a.637.637 0 1 0-.736 1.04l13.252 9.381a.628.628 0 0 0 .367.118.638.638 0 0 0 .369-1.158z" class="cls-19" transform="translate(-848.325 -136.238)"/>
                <path d="M886.481 173.593a.637.637 0 0 0-.94.861l8.189 8.942a.637.637 0 0 0 .94-.861z" class="cls-19" transform="translate(-853.799 -134.564)"/>
                <path d="M916.659 171.34a.638.638 0 0 0-.637.637v9.679a.637.637 0 0 0 1.275 0v-9.679a.637.637 0 0 0-.638-.637z" class="cls-19" transform="translate(-860.031 -134.148)"/>
                <path d="M952.093 172.31l-10.871 12.658a.637.637 0 0 0 .966.831l10.871-12.658a.637.637 0 0 0-.966-.831z" class="cls-19" transform="translate(-865.124 -134.3)"/>
                <path d="M968.822 152.3a7.17 7.17 0 1 0 7.17 7.17 7.169 7.169 0 0 0-7.17-7.17zm0 11.95a4.78 4.78 0 1 1 4.78-4.78 4.78 4.78 0 0 1-4.78 4.78z" class="cls-19" transform="translate(-869.309 -130.276)"/>
                <path d="M848.077 169.954a2.338 2.338 0 1 0 2.338 2.338 2.338 2.338 0 0 0-2.338-2.338z" class="cls-19" transform="translate(-845.739 -133.866)"/>
            </g>
        </g>
    </g>
</svg>
