<svg xmlns="http://www.w3.org/2000/svg" xmlns:xlink="http://www.w3.org/1999/xlink" width="212" height="72" viewBox="0 0 212 72">
  <defs>
    <style>
      .cls-1 {
        fill: #474e5f;
      }

      .cls-2 {
        clip-path: url(#clip-path);
      }

      .cls-3 {
        fill: #004498;
      }

      .cls-4 {
        fill: #fe800a;
      }

      .cls-5 {
        fill: #ff1822;
      }
    </style>
    <clipPath id="clip-path">
      <rect id="brand" class="cls-1" width="212" height="72" transform="translate(260 27)"/>
    </clipPath>
  </defs>
  <g id="brand-2" data-name="brand" class="cls-2" transform="translate(-260 -27)">
    <g id="cazanova-b" transform="translate(224.197 -40.954)">
      <g id="Grupo_1360" data-name="Grupo 1360" transform="translate(35.801 68.62)">
        <path id="Caminho_56136" data-name="Caminho 56136" class="cls-3" d="M313.118,132.076c-.465-2.107-.861-4.229-1.3-6.344-2.039-9.792-4.1-19.58-6.107-29.378-.176-.865-.4-1.358-1.363-1.12a22.142,22.142,0,0,0-3.466.051l-.636.019a.876.876,0,0,0-.666.005c-1.726,0-3.453.016-5.18.005-.445,0-.607.17-.7.609-.979,4.519-1.986,9.032-2.985,13.546q-.014.13-.028.259h0c-.266,1.076-.553,2.148-.795,3.229-1.41,6.315-2.793,12.633-4.233,18.94-.189.825-.077,1.042.8,1.023,2.669-.059,5.342-.078,8.011-.009.875.023,1.121-.34,1.212-1.069.147-1.179.323-2.354.473-3.532.086-.679.3-1.091,1.136-1.052,1.513.072,3.031.036,4.547,0,.56-.013.74.183.793.733.122,1.29.354,2.569.477,3.858.08.839.438,1.16,1.258.921l1.733.054c2.194-.029,4.389-.068,6.583-.085C313.2,132.739,313.221,132.55,313.118,132.076ZM300.877,119.7c-1.145-.036-2.292-.041-3.439-.059a.343.343,0,0,0-.021-.2c.012-.053.025-.106.037-.159l.043-.178c.019-.078.037-.157.055-.235.029-.124.055-.249.074-.374q.9-5.827,1.792-11.656l.185-.02,1.326,8.291q.055-.172.092-.343-.037.171-.092.343l.053.449h0l.094.411.031.256h0c.1.924.154,1.857.316,2.77.093.527,0,.723-.547.706Z" transform="translate(-101.165 -75.57)"/>
        <path id="Caminho_56137" data-name="Caminho 56137" class="cls-3" d="M273.325,95.455c-.3,0-.482.1-.47.431-.076.1-.1.2.007.294a13.445,13.445,0,0,0-.558,2.962l-.02.31q-.989,5.741-1.975,11.484c-.435,2.555-.852,5.115-1.28,7.672-.046.272,0,.746-.48.275l-.122-.5c-.084-.641-.159-1.282-.254-1.921-1-6.728-2.027-13.454-2.991-20.187-.1-.683-.321-.8-.928-.79-2.6.047-5.2.055-7.8.069-1.674.009-1.674,0-1.316,1.652q3.8,17.522,7.591,35.046a.911.911,0,0,0,1.08.854c3.176-.068,6.353-.113,9.528-.09.793.006,1.116-.206,1.29-.989.969-4.348,2-8.683,3-13.025q1.485-6.459,2.948-12.923a.4.4,0,0,0,.121-.432c-.016-.023-.028-.047-.042-.07.014.023.026.048.042.07l1.524-6.5.08-.529a20.706,20.706,0,0,0,.783-3.16C279.8,95.457,276.562,95.459,273.325,95.455Zm7.141,9.286a1.374,1.374,0,0,0,.009.367,1.375,1.375,0,0,1-.009-.367Z" transform="translate(-93.15 -75.642)"/>
        <path id="Caminho_56138" data-name="Caminho 56138" class="cls-3" d="M244.908,108.742c-.447-3.453-1.347-6.779-3.655-9.542l-.027-.041c-.025-.185-.159-.256-.313-.307h0a6.216,6.216,0,0,0-2.245-2.091,3.31,3.31,0,0,0-1.519-.865.455.455,0,0,0-.448-.206,12.415,12.415,0,0,0-6.747-.865,10.63,10.63,0,0,0-6.732,3,2.15,2.15,0,0,0-.874.873,2.551,2.551,0,0,0-.871,1.082,2.437,2.437,0,0,0-.635.886h0a13.041,13.041,0,0,0-1.541,3.015,33.323,33.323,0,0,0-1.621,13.9q.019.221.038.442a23.553,23.553,0,0,0,.76,4.881c.769,2.705,1.744,5.3,3.885,7.278h0a7.394,7.394,0,0,0,3.265,2.387h0a12.643,12.643,0,0,0,8.606.848l.294-.023a7.474,7.474,0,0,0,3.089-1.246.17.17,0,0,0,.165-.054c.139.022.2-.061.235-.176a6.162,6.162,0,0,0,2.144-1.752l0,0a4.259,4.259,0,0,0,1.359-1.687h0a17.706,17.706,0,0,0,3.227-8.705.793.793,0,0,0,.147-.664,39.972,39.972,0,0,0,.013-10.364Zm-10.148,6.791a20.86,20.86,0,0,1-.834,6.629,2.589,2.589,0,0,1-2.313,1.977c-1.672.135-2.736-.871-3.137-3.009a43.08,43.08,0,0,1-.4-9.287,23.026,23.026,0,0,1,.609-5.367q.059-.221.128-.423c.025-.075.054-.143.081-.214s.042-.117.065-.171c.034-.081.072-.154.108-.23.019-.038.036-.08.055-.117.044-.084.092-.16.139-.237.014-.023.028-.049.042-.072.054-.083.112-.158.17-.231.01-.013.019-.029.029-.041a2.589,2.589,0,0,1,.189-.2c.01-.01.019-.022.029-.032a2.326,2.326,0,0,1,.224-.185l.014-.011a2.192,2.192,0,0,1,.251-.156l.006,0a3.457,3.457,0,0,1,2.77.027l-.007-.007.014.009-.007,0c1.15,1.032,1.342,2.462,1.6,3.864l.094.527.059.76v.013l0,.02c.005,1.543.033,3.086.029,4.629Q234.775,114.761,234.76,115.533Z" transform="translate(-83.37 -75.447)"/>
        <path id="Caminho_56139" data-name="Caminho 56139" class="cls-3" d="M203.952,95.911l-.3.017a.207.207,0,0,0-.3,0,1.623,1.623,0,0,0-.987,0c-2.27-.176-4.541.04-6.812-.019-.486-.013-.614.176-.607.632.022,1.477.009,2.955.009,4.433l-.014,1.1v12.519l-.454.043-1.539-5.036h.009q-1.8-6.54-3.6-13.081a.69.69,0,0,0-.786-.553q-4.489.032-8.979.022c-.411,0-.676.044-.671.569.014,1.908-.011,3.816-.021,5.724a9.4,9.4,0,0,0-.046,2.18q-.133,14.18-.276,28.36c-.007.652.248.767.834.757,2.526-.042,5.054-.082,7.58-.027.894.019,1.079-.281,1.078-1.1,0-5.088.046-10.177.08-15.266a2.673,2.673,0,0,1,.241-1.489c.728,1.344.8,2.83,1.452,4.112.013.086.026.172.04.259h0q1.855,6.351,3.708,12.7a.946.946,0,0,0,1.087.764c2.673-.051,5.345-.093,8.015-.025,1.045.027,1.313-.264,1.318-1.306.062-11.8.176-23.608.268-35.412C204.275,96.477,204.519,96.032,203.952,95.911Z" transform="translate(-73.162 -75.747)"/>
        <path id="Caminho_56140" data-name="Caminho 56140" class="cls-3" d="M166.639,132.924c-.384-1.57-.677-3.163-1.006-4.747l-.138-.452a4.507,4.507,0,0,0-.043-.643q-2.5-11.922-5-23.843a.427.427,0,0,0-.159-.441q-.576-3.007-1.152-6.015c-.09-.474-.362-.614-.836-.6-2.23.047-4.46.059-6.689.088-.206,0-.494-.029-.549.188-.036.141.142.364.269.512a3.642,3.642,0,0,0,.493.411h0l.627.889c.751,1.711.025,3.225-.631,4.749l-.47.643-.414.408-.229.221-.2.24v0c-.2.084-.213.254-.194.437a6.27,6.27,0,0,1-1.893,1.818,24.5,24.5,0,0,0-3.989,3.344,6.116,6.116,0,0,0-.682,2.641h0l-.135.438h0l-3.483,15.337A14.441,14.441,0,0,0,144.9,127.1l0,.005a7.153,7.153,0,0,1,3.455-.059.168.168,0,0,0,.172.053l.7.619.006.011.172.248h0c.189,1.209-.461,2.229-.747,3.331a1.645,1.645,0,0,1-1.219,1.234c-1.148.36-2.28.772-3.418,1.163,1.439.119,2.847.1,4.254.128.513.009.769-.114.835-.682.154-1.322.408-2.631.566-3.952.081-.676.283-1.024,1.061-1,1.515.051,3.035.025,4.551-.02.606-.018.811.2.872.787.147,1.4.374,2.786.545,4.182.057.465.21.671.734.663,2.889-.049,5.779-.059,8.668-.078C166.7,133.731,166.78,133.5,166.639,132.924Zm-12-12.2h0q-.866-.078-1.731-.075c-.059,0-.12,0-.18.005-.517.008-1.034.034-1.55.088-.375-1.118.12-2.179.266-3.249.458-3.352,1.02-6.69,1.574-10.242a24.807,24.807,0,0,1,.72,4.154c.421,2.777.793,5.562,1.186,8.343.013.092.038.187.059.281a1.136,1.136,0,0,1,.038.275c0,.175-.088.327-.382.417Z" transform="translate(-63.105 -75.832)"/>
        <path id="Caminho_56141" data-name="Caminho 56141" class="cls-4" d="M102.82,89.907c1.527.107,3.109-.352,4.579.437a1.41,1.41,0,0,0,.748.029c7.176-.746,14.109.509,20.967,2.477,1.322.379,2.561.937,3.834,1.421a5.02,5.02,0,0,1,3.159,4.435,3.267,3.267,0,0,1-.66,1.693c-1.028,1.374-1.706,3.017-3.214,4.035-1.039.7-1.968,1.565-2.953,2.348s-1.8,1.781-3.147,2.012a1.522,1.522,0,0,0-.805.521c-2.005,2.373-4.793,3.744-7.193,5.61a57.181,57.181,0,0,1-5.455,3.865,2.278,2.278,0,0,1-.99.369,1.6,1.6,0,0,0-1.188.663c-1.437,1.915-3.517,3.021-5.452,4.312a55.2,55.2,0,0,0-7.763,6.263c-.161.156-.3.35-.176.572s.385.179.585.137c2.146-.446,4.323.033,6.471-.226.919-.111,1.733.49,2.666.264a17.227,17.227,0,0,1,2.4-.579,74.857,74.857,0,0,0,9.089-1.087c3.956-.884,8.048-1.209,11.857-2.756.714-.29,1.6-.947,2.305-.24.68.682-.035,1.527-.174,2.3a2.055,2.055,0,0,1-1.86,1.674c-1.716.379-3.346,1.129-5.169,1.045-.9-.042-1.531.738-2.346,1.021a9.306,9.306,0,0,1-2.622.582,7.247,7.247,0,0,0-2.91.712,10.544,10.544,0,0,1-4.607,1.046c-1.669.01-3.047.8-4.588,1.1-2.692.532-5.426.6-8.128.974-1.636.225-3.282.424-4.9.711a24.877,24.877,0,0,1-7.746.109,6.542,6.542,0,0,1-3.348-1.584c-1.054-.879-.9-3.238.249-4.263a53.549,53.549,0,0,1,6.113-4.775c1.192-.783,2.456-1.458,3.7-2.16a20.909,20.909,0,0,0,2.491-1.863c3.6-2.815,7.568-5.121,11.144-7.958,4.327-3.433,8.852-6.63,12.847-10.469a17.452,17.452,0,0,0,3.214-3.912c.628-1.109.5-1.575-.7-1.926a36.307,36.307,0,0,0-6.121-1.229c-2.251-.256-4.592.188-6.726-.467-2.335-.716-4.563.049-6.832-.135-3.165-.257-6.333.125-9.5.035-.561-.016-1.12,0-1.338-.653a1.39,1.39,0,0,1,.354-1.667,8.365,8.365,0,0,1,1.864-1.619c.67-.31.448-1.139,1-1.6a7.6,7.6,0,0,1,4.813-1.6C101.374,89.882,102.1,89.907,102.82,89.907Z" transform="translate(-48.251 -74.181)"/>
        <path id="Caminho_56142" data-name="Caminho 56142" class="cls-5" d="M150.241,88.237a2.542,2.542,0,0,0-1.044-.818c-2.448-1.139-4.9-2.277-7.352-3.4q-4.714-2.149-9.438-4.271v0c-3.411-1.715-6.893-3.273-10.4-4.779v0a55.906,55.906,0,0,0-6.093-2.807.061.061,0,0,0-.091-.046c-2.33-1.312-4.838-2.246-7.236-3.415a1,1,0,0,0-.933.056c-1.422.747-2.958,1.263-4.324,2.124l-.417.189c-2.9,1.335-5.811,2.659-8.706,4.009Q88.98,77.526,83.769,80C80.462,81.584,77.075,83,73.85,84.75c-.171,0-.338,0-.425.189-2.588,1.019-5.043,2.307-7.509,3.571a11.268,11.268,0,0,0,2.954.088l3.245-.018c4.475-.019,8.953-.133,13.425-.01,1.764.048,2.6-1.034,3.442-2.116a7.078,7.078,0,0,1,2.463-2.17,11,11,0,0,1,5.055-.936,45.936,45.936,0,0,1,6.969.246c1.611.261,3.457-.1,5.22-.016a92.009,92.009,0,0,1,11.251,1.355,49.986,49.986,0,0,1,8.977,2.656l-.005-.006a3.553,3.553,0,0,0,1.771.655Q140.463,88.235,150.241,88.237Z" transform="translate(-43.682 -68.62)"/>
        <path id="Caminho_56143" data-name="Caminho 56143" class="cls-3" d="M92.58,121.27c-.552-1.807-.789-3.709-1.181-5.565-.619-2.933-1.12-5.892-1.912-8.787l.023-.053-.043-.04c-.275-2.324-.9-4.582-1.341-6.873a.435.435,0,0,0-.388-.326,2.317,2.317,0,0,1-1.187-2.35c.115-.76-.241-.646-.683-.642-3.034.026-6.069.094-9.1.038-.828-.016-1.039.31-1.187.975q-2.125,9.59-4.272,19.175-1.857,8.325-3.723,16.647c-.145.64-.045.895.691.879,2.78-.059,5.562-.069,8.341-.07.594,0,.893-.106.957-.809.12-1.326.445-2.633.569-3.959.065-.7.35-.825.955-.8.938.036,1.88-.039,2.817.012a5.077,5.077,0,0,0,3.824-1.05,7.511,7.511,0,0,1,2.05-1.286c1.369-.512,2.262-1.607,3.427-2.345l.211-.283v0A1.741,1.741,0,0,0,92.58,121.27Zm-11.781.452a3.418,3.418,0,0,0,.511.036,3.416,3.416,0,0,1-.512-.036Zm2.366-.569-3.459.01c-.311-.141-.241-.411-.2-.653.644-4.232,1.292-8.463,2.1-12.695.522,3.662,1.068,7.32,1.547,10.988a7.81,7.81,0,0,0,.209.874,1.567,1.567,0,0,1-.194,1.477Z" transform="translate(-44.103 -75.949)"/>
        <path id="Caminho_56144" data-name="Caminho 56144" class="cls-3" d="M55.734,96.6a19.2,19.2,0,0,0-4.573-.659,11.455,11.455,0,0,0-6.483,1.534v-.006a6.247,6.247,0,0,0-2.426,1.691l-.013.01a4.9,4.9,0,0,0-1.643,1.6l-.3.366h0c.281.826-.418,1.208-.8,1.762.38-.553,1.079-.935.8-1.762a15.223,15.223,0,0,0-2.89,5.081l-.074.34a9.063,9.063,0,0,0-.374.877,29.718,29.718,0,0,0-.82,12.8,16.5,16.5,0,0,0,2.523,7.448h0l.162.27-.011,0a5.164,5.164,0,0,0,1.277,1.753,1.074,1.074,0,0,0,.5.611c.173.276.611.246.7.612-.045.151.042.209.168.241l.328.3.036.027a7.087,7.087,0,0,0,2.256,1.593,12.468,12.468,0,0,0,11.92.663l.029-.011c.716-.047.486-.615.494-.985.055-2.306.076-4.611.106-6.918.006-.478,0-.955,0-1.582a11.2,11.2,0,0,1-2.78,1.077l-.45.12a5.258,5.258,0,0,1-5.428-2.945,12.713,12.713,0,0,1-1.292-4.866,28.094,28.094,0,0,1,.453-7.527l.155-.443.45-1.089a5.568,5.568,0,0,1,4.577-3.73l1.527.005,1.306.251.012,0c.318.154.639.3.952.463.4.206.665.2.657-.36-.019-1.385-.025-2.77-.037-4.155a4.969,4.969,0,0,0,.035-1.792,7.718,7.718,0,0,1,.073-1.287C57.051,97.025,56.539,96.806,55.734,96.6Z" transform="translate(-35.801 -75.77)"/>
      </g>
      <g id="Grupo_1361" data-name="Grupo 1361" transform="translate(148.878 128.296)">
        <path id="Caminho_56145" data-name="Caminho 56145" class="cls-3" d="M188.958,157.7l1.586-.154a1.934,1.934,0,0,0,.581,1.173,1.755,1.755,0,0,0,1.181.374,1.816,1.816,0,0,0,1.187-.333.991.991,0,0,0,.4-.779.734.734,0,0,0-.168-.487,1.345,1.345,0,0,0-.587-.35q-.286-.1-1.3-.352a4.428,4.428,0,0,1-1.839-.8,2.1,2.1,0,0,1-.743-1.624,2.075,2.075,0,0,1,.349-1.154,2.19,2.19,0,0,1,1.008-.817,4.035,4.035,0,0,1,1.588-.281,3.407,3.407,0,0,1,2.288.666,2.351,2.351,0,0,1,.807,1.778l-1.63.072a1.384,1.384,0,0,0-.449-.895,1.643,1.643,0,0,0-1.032-.272,1.862,1.862,0,0,0-1.112.292.587.587,0,0,0-.259.5.62.62,0,0,0,.242.49,4.287,4.287,0,0,0,1.5.54,7.89,7.89,0,0,1,1.759.581,2.266,2.266,0,0,1,.892.82,2.541,2.541,0,0,1-.063,2.585,2.309,2.309,0,0,1-1.09.9,4.575,4.575,0,0,1-1.756.294,3.492,3.492,0,0,1-2.35-.707A3.079,3.079,0,0,1,188.958,157.7Z" transform="translate(-188.958 -150.147)"/>
        <path id="Caminho_56146" data-name="Caminho 56146" class="cls-3" d="M199.689,152.3h1.629v4.372a9.071,9.071,0,0,0,.061,1.349,1.307,1.307,0,0,0,.5.8,1.735,1.735,0,0,0,1.076.3,1.642,1.642,0,0,0,1.046-.283,1.121,1.121,0,0,0,.424-.7,9.112,9.112,0,0,0,.072-1.371v-4.464h1.629v4.239a10.9,10.9,0,0,1-.132,2.054,2.272,2.272,0,0,1-.487,1.013,2.463,2.463,0,0,1-.95.658,4.132,4.132,0,0,1-1.553.245,4.471,4.471,0,0,1-1.754-.267,2.511,2.511,0,0,1-.944-.694,2.224,2.224,0,0,1-.457-.895,9.8,9.8,0,0,1-.16-2.048Z" transform="translate(-191.766 -150.196)"/>
        <path id="Caminho_56147" data-name="Caminho 56147" class="cls-3" d="M217.721,160.376h-1.773l-.7-1.833h-3.226l-.666,1.833h-1.729l3.143-8.071h1.723Zm-3-3.193-1.112-3-1.09,3Z" transform="translate(-194.366 -150.196)"/>
        <path id="Caminho_56148" data-name="Caminho 56148" class="cls-3" d="M230.5,157.36l1.58.5a3.544,3.544,0,0,1-1.209,1.963,3.8,3.8,0,0,1-4.787-.457,4.2,4.2,0,0,1-1.035-3,4.412,4.412,0,0,1,1.041-3.13,3.568,3.568,0,0,1,2.736-1.116,3.358,3.358,0,0,1,2.406.875,3.184,3.184,0,0,1,.826,1.486l-1.613.386a1.667,1.667,0,0,0-1.7-1.354,1.837,1.837,0,0,0-1.456.644,3.159,3.159,0,0,0-.558,2.085,3.385,3.385,0,0,0,.551,2.18,1.788,1.788,0,0,0,1.432.65,1.633,1.633,0,0,0,1.118-.413,2.4,2.4,0,0,0,.671-1.3Z" transform="translate(-198.403 -150.147)"/>
        <path id="Caminho_56149" data-name="Caminho 56149" class="cls-3" d="M243.457,160.376h-1.773l-.7-1.833h-3.226l-.666,1.833h-1.729L238.5,152.3h1.723Zm-3-3.193-1.112-3-1.09,3Z" transform="translate(-201.1 -150.196)"/>
        <path id="Caminho_56150" data-name="Caminho 56150" class="cls-3" d="M246.939,157.7l1.586-.154a1.936,1.936,0,0,0,.581,1.173,1.755,1.755,0,0,0,1.181.374,1.816,1.816,0,0,0,1.187-.333.992.992,0,0,0,.4-.779.734.734,0,0,0-.168-.487,1.344,1.344,0,0,0-.587-.35q-.286-.1-1.3-.352a4.428,4.428,0,0,1-1.839-.8,2.1,2.1,0,0,1-.743-1.624,2.074,2.074,0,0,1,.35-1.154,2.19,2.19,0,0,1,1.007-.817,4.036,4.036,0,0,1,1.588-.281,3.408,3.408,0,0,1,2.288.666,2.352,2.352,0,0,1,.807,1.778l-1.63.072a1.384,1.384,0,0,0-.449-.895,1.645,1.645,0,0,0-1.032-.272,1.863,1.863,0,0,0-1.112.292.587.587,0,0,0-.259.5.62.62,0,0,0,.242.49,4.286,4.286,0,0,0,1.5.54,7.892,7.892,0,0,1,1.759.581,2.265,2.265,0,0,1,.892.82,2.541,2.541,0,0,1-.063,2.585,2.308,2.308,0,0,1-1.09.9,4.576,4.576,0,0,1-1.756.294,3.492,3.492,0,0,1-2.35-.707A3.078,3.078,0,0,1,246.939,157.7Z" transform="translate(-204.131 -150.147)"/>
        <path id="Caminho_56151" data-name="Caminho 56151" class="cls-3" d="M264.673,160.376H262.9l-.7-1.833h-3.226l-.666,1.833h-1.729l3.143-8.071h1.723Zm-3-3.193-1.112-3-1.09,3Z" transform="translate(-206.652 -150.196)"/>
        <path id="Caminho_56152" data-name="Caminho 56152" class="cls-3" d="M272.391,159.63v-8.073h5.984v1.365h-4.354v1.79h4.053v1.36h-4.053v2.2h4.509v1.36Zm2.07-8.534.76-1.646h1.734l-1.514,1.646Z" transform="translate(-210.791 -149.448)"/>
        <path id="Caminho_56153" data-name="Caminho 56153" class="cls-3" d="M293.243,160.376H291.47l-.7-1.833h-3.226l-.666,1.833h-1.729l3.143-8.071h1.723Zm-3-3.193-1.112-3-1.09,3Z" transform="translate(-214.128 -150.196)"/>
        <path id="Caminho_56154" data-name="Caminho 56154" class="cls-3" d="M303.664,159.3a5.316,5.316,0,0,0,1.3.683l-.6,1.151a3.715,3.715,0,0,1-.721-.3q-.077-.038-1.085-.716a4.333,4.333,0,0,1-1.756.347,3.855,3.855,0,0,1-2.915-1.1,5.01,5.01,0,0,1,0-6.153,3.8,3.8,0,0,1,2.869-1.1,3.756,3.756,0,0,1,2.847,1.1,4.265,4.265,0,0,1,1.051,3.075,5.313,5.313,0,0,1-.292,1.839A3.826,3.826,0,0,1,303.664,159.3Zm-1.311-.92a2.44,2.44,0,0,0,.47-.892,4.186,4.186,0,0,0,.157-1.2,3.058,3.058,0,0,0-.617-2.089,2.229,2.229,0,0,0-3.229,0,3.049,3.049,0,0,0-.619,2.085,3.121,3.121,0,0,0,.619,2.117,2,2,0,0,0,1.566.7,1.916,1.916,0,0,0,.666-.115,4.708,4.708,0,0,0-1.008-.507l.457-.93a5.538,5.538,0,0,1,1.537.827Z" transform="translate(-217.188 -150.147)"/>
        <path id="Caminho_56155" data-name="Caminho 56155" class="cls-3" d="M309.15,152.3h1.63v4.372a9.077,9.077,0,0,0,.061,1.349,1.306,1.306,0,0,0,.5.8,1.735,1.735,0,0,0,1.076.3,1.641,1.641,0,0,0,1.046-.283,1.121,1.121,0,0,0,.424-.7,9.086,9.086,0,0,0,.072-1.371v-4.464h1.63v4.239a10.873,10.873,0,0,1-.132,2.054,2.272,2.272,0,0,1-.487,1.013,2.46,2.46,0,0,1-.95.658,4.131,4.131,0,0,1-1.553.245,4.471,4.471,0,0,1-1.754-.267,2.508,2.508,0,0,1-.944-.694,2.226,2.226,0,0,1-.457-.895,9.8,9.8,0,0,1-.159-2.048Z" transform="translate(-220.41 -150.196)"/>
        <path id="Caminho_56156" data-name="Caminho 56156" class="cls-3" d="M320.126,160.376V152.3h1.63v8.071Z" transform="translate(-223.283 -150.196)"/>
      </g>
    </g>
  </g>
</svg>
