<svg xmlns="http://www.w3.org/2000/svg" xmlns:xlink="http://www.w3.org/1999/xlink" width="136.231" height="32" viewBox="0 0 136.231 32">
  <defs>
    <linearGradient id="linear-gradient" x1="0.5" x2="0.5" y2="1" gradientUnits="objectBoundingBox">
      <stop offset="0" stop-color="#efb400"/>
      <stop offset="1" stop-color="#fcd400"/>
    </linearGradient>
  </defs>
  <g transform="translate(-100.504 -326.969)">
    <g transform="translate(100.504 326.969)">
      <g transform="translate(0 0)">
        <path d="M124.826,345.754H112.772a8.23,8.23,0,0,0-8.23,8.23v12.054a8.23,8.23,0,0,0,8.23,8.23h12.054a8.23,8.23,0,0,0,8.23-8.23V353.984A8.23,8.23,0,0,0,124.826,345.754Zm5.6,20.5a5.463,5.463,0,0,1-5.463,5.463H112.631a5.463,5.463,0,0,1-5.463-5.463V353.914a5.463,5.463,0,0,1,5.463-5.463h12.336a5.463,5.463,0,0,1,5.463,5.463Z" transform="translate(-104.542 -345.754)" fill="url(#linear-gradient)"/>
        <path d="M145.911,380.075a7.4,7.4,0,1,0,7.4,7.4A7.4,7.4,0,0,0,145.911,380.075Zm0,12.194a4.8,4.8,0,1,1,4.8-4.8A4.8,4.8,0,0,1,145.911,392.27Z" transform="translate(-131.653 -373.146)" fill="url(#linear-gradient)"/>
        <circle cx="1.724" cy="1.724" r="1.724" transform="translate(20.179 4.924)" fill="url(#linear-gradient)"/>
      </g>
    </g>
    <g transform="translate(136.232 330.534)">
      <path d="M326.1,353.838a1.812,1.812,0,0,1,.883.035,3.152,3.152,0,0,1,1.231.508.724.724,0,0,1,.326.592q0,6.192,0,12.384a23.141,23.141,0,0,1-.175,4.06,5.587,5.587,0,0,1-1.389,2.972,3.311,3.311,0,0,1-.89.736,1.731,1.731,0,0,1-.936.265.37.37,0,0,1-.125-.3,3.727,3.727,0,0,1,.249-.928,12.256,12.256,0,0,0,.441-3.184c.027-5.03.037-10.061.062-15.091a2.342,2.342,0,0,0-.029-.389c-.193.008-.314.168-.444.288a6.984,6.984,0,0,0-1.465,2.058,9.187,9.187,0,0,0-.8,3.133,5.944,5.944,0,0,0,.14,2.1,4.007,4.007,0,0,0,.7,1.477.554.554,0,0,1,.073.636c-.183.189-.469.089-.685.021a4.191,4.191,0,0,1-1.825-1.354,4.24,4.24,0,0,1-.83-2.563,7.991,7.991,0,0,1,.563-2.338,9.4,9.4,0,0,1,1.856-3.012,10.652,10.652,0,0,1,1.724-1.465,4.849,4.849,0,0,1,1.352-.646Zm27.274.2a1.084,1.084,0,0,1,.859-.136,6.4,6.4,0,0,1,1.51.421,1.288,1.288,0,0,1,.393.27c-.046,1.125-.092,2.252-.152,3.377,1.134.052,2.267.115,3.4.181.2.009.46.065.494.3a1.765,1.765,0,0,1-.17,1.033c-.1.164-.236.364-.451.35-1.1.018-2.2.053-3.3.069-.061,1.582-.1,3.165-.158,4.747a34.088,34.088,0,0,0-.008,4.331,4.573,4.573,0,0,0,.413,1.642.771.771,0,0,0,.564.438,1.223,1.223,0,0,0,.893-.316,3.912,3.912,0,0,0,.885-1.229,10.278,10.278,0,0,0,.638-1.628,4.587,4.587,0,0,0,.037-.75,11.8,11.8,0,0,1,.677-3.894,5.523,5.523,0,0,1,1.588-2.407,3.042,3.042,0,0,1,3.062-.5,2.963,2.963,0,0,1,1.508,1.381,2.955,2.955,0,0,1,.1-.878.893.893,0,0,1,.883-.283,3.165,3.165,0,0,1,1.2.357.784.784,0,0,1,.454.607c-.072,2.414-.172,4.829-.1,7.244a9.008,9.008,0,0,0,.21,1.559,1.835,1.835,0,0,0,.522,1.019.813.813,0,0,0,.979-.064,3.413,3.413,0,0,0,.919-1.36.812.812,0,0,0,.111-.449,15.95,15.95,0,0,1,.038-4.363,8.18,8.18,0,0,1,.957-2.78,5.071,5.071,0,0,1,2.158-2.058,1.848,1.848,0,0,1,.548-.181,3.439,3.439,0,0,1,2.481.946,3.808,3.808,0,0,1,.435.592,5.932,5.932,0,0,1,.093-.821c.146-.305.538-.324.83-.284a4.284,4.284,0,0,1,1.431.434c.27.16.27.506.257.781-.025,2.72-.064,5.441-.083,8.161a21.662,21.662,0,0,0,1.665-2.734,13.994,13.994,0,0,0,1.349-3.65,2.238,2.238,0,0,1-.748-1.135,2.214,2.214,0,0,1,.1-1.113,1.734,1.734,0,0,1,1.124-1.2,1.777,1.777,0,0,1,1.309.083,1.092,1.092,0,0,1,.522.819,2.81,2.81,0,0,1-.058,1c.728-.115,1.456-.233,2.171-.414a2.891,2.891,0,0,1,1.509-.045,1.049,1.049,0,0,1,.69.77,1.926,1.926,0,0,1-.025,1.14,9.123,9.123,0,0,0-.344,1.5,12.189,12.189,0,0,0-.308,4.056,6.976,6.976,0,0,0,.444,1.776,1.261,1.261,0,0,0,.672.734,1.1,1.1,0,0,0,.933-.286,2.847,2.847,0,0,0,.833-1.466,12.258,12.258,0,0,1-.125-4.336,9.528,9.528,0,0,1,1-3.105,4.157,4.157,0,0,1,1.745-1.762,2.958,2.958,0,0,1,2.724.05,3.112,3.112,0,0,1,1.2,1.2,2.34,2.34,0,0,1,.127-.886,1.051,1.051,0,0,1,.993-.226,2.275,2.275,0,0,1,1.374.6c.222.246.115.594.116.891-.04,1.586-.107,3.171-.1,4.757a13.994,13.994,0,0,0,.285,3.625,1.523,1.523,0,0,0,.48.818.857.857,0,0,0,1-.046,3.327,3.327,0,0,0,.868-1.132,6.137,6.137,0,0,0,.488-1.154c.006-2.668.021-5.335.025-8a.566.566,0,0,1,.288-.585c.163-.1.356-.027.532-.007a5,5,0,0,1,1.4.324.483.483,0,0,1,.322.424c0,1.318,0,2.637,0,3.955a3.746,3.746,0,0,0,.016.457c.389-1.2.8-2.4,1.262-3.576a10.915,10.915,0,0,1,.611-1.277.946.946,0,0,1,.934-.36,2.318,2.318,0,0,1,1.855,1,1.544,1.544,0,0,1,.2.775c-.013,1.371.064,2.741.162,4.108.032.424.038.853.1,1.274a.181.181,0,0,0,.08-.129,21.211,21.211,0,0,1,.68-2.986,28.377,28.377,0,0,1,1.125-3.2,1.3,1.3,0,0,1,.5-.694,1.63,1.63,0,0,1,1.244-.025,3.752,3.752,0,0,1,1.29.636,1.291,1.291,0,0,1,.493.91,50.338,50.338,0,0,0-.057,6.378,9.933,9.933,0,0,0,.263,1.738,2.662,2.662,0,0,0,.4.913.756.756,0,0,0,.86.268,1.234,1.234,0,0,0,.587-.6,9.052,9.052,0,0,0,.588-1.9.587.587,0,0,1,.338-.472c.146-.092.3.022.415.109.15.14.106.36.108.543a5.457,5.457,0,0,1-.805,2.955,2.4,2.4,0,0,1-2.2,1.068,2.5,2.5,0,0,1-1.951-1.156,6.729,6.729,0,0,1-.9-2.755,36.877,36.877,0,0,1-.139-5.751.48.48,0,0,0-.167.213,16,16,0,0,0-1.184,3.376,22.078,22.078,0,0,0-.66,4.594.41.41,0,0,1-.334.4,1.678,1.678,0,0,1-1.35,0,2,2,0,0,1-.935-1.013,4.884,4.884,0,0,1-.355-1.395c-.254-1.97-.34-3.958-.439-5.94.014-.143-.149-.051-.223-.037a14.82,14.82,0,0,0-1.7,5.5,27.264,27.264,0,0,0-.22,3.353.577.577,0,0,1-.29.5,1.9,1.9,0,0,1-1.1.151,2.632,2.632,0,0,1-1.275-.341.593.593,0,0,1-.269-.468c-.027-.365-.034-.73-.065-1.095a7.789,7.789,0,0,1-.607.875,2.837,2.837,0,0,1-1.461.975,2.452,2.452,0,0,1-2.319-.714,3.619,3.619,0,0,1-.841-1.839,4.551,4.551,0,0,1-1.979,2.171,3.716,3.716,0,0,1-1.4.414,2.767,2.767,0,0,1-1.582-.248,3.536,3.536,0,0,1-1.568-1.736A3.216,3.216,0,0,1,390.809,373a2.723,2.723,0,0,1-2.573-.779,5.182,5.182,0,0,1-1.414-3.136,8.4,8.4,0,0,1-.008-1.682,19.322,19.322,0,0,1,.546-3.725,1.566,1.566,0,0,0,0-.2c-.672-.032-1.344-.009-2.016.01a17.511,17.511,0,0,1-1.38,3.277,28.449,28.449,0,0,1-3.439,5.016c.015,1.49.062,2.982-.01,4.472a9.849,9.849,0,0,1-.743,3.464,4.181,4.181,0,0,1-1.761,1.968,4.619,4.619,0,0,1-1.944.546,4.064,4.064,0,0,1-2.369-.825,2.654,2.654,0,0,1-.9-1.51,3.16,3.16,0,0,1,.052-1.541,7.009,7.009,0,0,1,1.538-2.456c.651-.738,1.4-1.375,2.112-2.053q.853-.8,1.712-1.59c.01-.413-.055-.827-.067-1.24a6.323,6.323,0,0,1-.829,1,3.874,3.874,0,0,1-3.148,1.061,3.213,3.213,0,0,1-1.91-1.308,5.1,5.1,0,0,1-.478-.722,3.588,3.588,0,0,1-1.951,1.966,2.552,2.552,0,0,1-2.577-.847,3.475,3.475,0,0,1-.741-1.718,4.725,4.725,0,0,1-1.778,2.075,3.783,3.783,0,0,1-1.694.547,2.72,2.72,0,0,1-1.86-.45,4.961,4.961,0,0,1-1.731-2.939,7.082,7.082,0,0,1-.647,1.4,5.849,5.849,0,0,1-.873,1.127,2.685,2.685,0,0,1-1.486.791,2.415,2.415,0,0,1-1.851-.545,3.665,3.665,0,0,1-.935-1.292,8.35,8.35,0,0,1-.653-2.844,10.074,10.074,0,0,1-2.012,3.119,5.305,5.305,0,0,1-2.512,1.466,6.8,6.8,0,0,1-2.313.1,4.9,4.9,0,0,1-1.93-.529,1.307,1.307,0,0,1-.658-.733,1.414,1.414,0,0,1,.356-.985,1.753,1.753,0,0,1,.737-.66c.3-.1.554.145.786.294a2.858,2.858,0,0,0,1.242.7,1.21,1.21,0,0,0,1.293-.441,2.611,2.611,0,0,0,.348-1.3,3.217,3.217,0,0,0-1.118-2.139c-.535-.512-1.1-1-1.647-1.49-.786,1.339-1.629,2.642-2.424,3.975a9.01,9.01,0,0,1-1.778,2.325,3.628,3.628,0,0,1-1.868.968,1.376,1.376,0,0,1-1.252-.538,3.582,3.582,0,0,1-.638-1.7,21.787,21.787,0,0,1-.073-3.239c.018-1.373.09-2.744.136-4.116a6.767,6.767,0,0,0,.013-.882c-.092.021-.2.023-.259.109a14.913,14.913,0,0,0-2.769,5.172,29.605,29.605,0,0,0-1.18,4.985.943.943,0,0,1-.759.176c-.321-.046-.65,0-.966-.07a.962.962,0,0,1-.595-.584,4.175,4.175,0,0,1-.254-1.708q.041-4.87.071-9.74c-.007-.156.036-.354.2-.409a2,2,0,0,1,1.027.056,2.206,2.206,0,0,1,1.066.481c.144.136.083.349.093.524-.008,1.8-.033,3.6-.024,5.4a23.961,23.961,0,0,1,2.095-4.659,6.457,6.457,0,0,1,.655-.863,2.469,2.469,0,0,1,1.737-.973,3.152,3.152,0,0,1,1.461.444,1.976,1.976,0,0,1,1.01.984,2.054,2.054,0,0,1,.063.85q-.069,2.324-.145,4.648c-.01.632-.061,1.264-.023,1.9a3.052,3.052,0,0,0,.157.89c.064.158.158.341.346.372a.643.643,0,0,0,.452-.214,5.914,5.914,0,0,0,.746-.882c.65-.9,1.206-1.867,1.763-2.829.325-.6.666-1.184.967-1.792-.106-.177-.269-.319-.363-.506a2.475,2.475,0,0,1-.269-1.963,3.024,3.024,0,0,1,1.1-1.6,3.276,3.276,0,0,1,1.252-.523,1.685,1.685,0,0,1,1.275.182.919.919,0,0,1,.4.761,3.088,3.088,0,0,1-.445,1.581,7.778,7.778,0,0,1-.93,1.329,23.886,23.886,0,0,1,3.221,2.576,3.443,3.443,0,0,1,1,1.922,3.768,3.768,0,0,1-.051,1.145,6.017,6.017,0,0,0,2.066-3.544c.027-2.117.021-4.235.044-6.352-.968-.018-1.938-.02-2.905-.045a.656.656,0,0,1-.24-.562,2.033,2.033,0,0,1,.469-1.361c.051-.078.149-.053.228-.059l2.589.035c.042-.98.064-1.961.1-2.941a1.263,1.263,0,0,1,.192-.824Zm10.561,8.172a1.954,1.954,0,0,0-1.254,1.06,6.52,6.52,0,0,0-.627,2.146,15.51,15.51,0,0,0-.121,2.908,5.663,5.663,0,0,0,.5,2.188,1.7,1.7,0,0,0,.888.849.982.982,0,0,0,.82-.043,2.77,2.77,0,0,0,1.12-1.255,8.636,8.636,0,0,0,.751-2.975,10.082,10.082,0,0,0-.143-3.187,2.783,2.783,0,0,0-.727-1.348,1.344,1.344,0,0,0-1.2-.342Zm12.054.037a2.5,2.5,0,0,0-1.459,1.383,8.58,8.58,0,0,0-.7,3.019,9.956,9.956,0,0,0,.3,3.469,2.108,2.108,0,0,0,1.016,1.309,1.1,1.1,0,0,0,1.04-.07,2.489,2.489,0,0,0,.671-.648,5.529,5.529,0,0,0,.844-1.948,12.869,12.869,0,0,0,.327-3.135,7.14,7.14,0,0,0-.3-2.134,2.168,2.168,0,0,0-.746-1.1,1.14,1.14,0,0,0-.986-.147Zm20.913.089a1.909,1.909,0,0,0-1.316,1.069,7.767,7.767,0,0,0-.72,2.974,11.5,11.5,0,0,0,.162,3.431,2.691,2.691,0,0,0,.808,1.472,1.122,1.122,0,0,0,1.061.231,2.225,2.225,0,0,0,1.071-.972,7.9,7.9,0,0,0,.946-3.347,9.745,9.745,0,0,0-.149-3.16,2.641,2.641,0,0,0-.753-1.367,1.315,1.315,0,0,0-1.11-.331Zm-19.485,12.687a11.471,11.471,0,0,0-2.6,3.566,2.336,2.336,0,0,0-.171,1.561,1.183,1.183,0,0,0,.829.854,1.978,1.978,0,0,0,1.541-.152,2.3,2.3,0,0,0,.845-1.172,9.535,9.535,0,0,0,.415-2.749c.014-.905.04-1.811.045-2.716a10.279,10.279,0,0,0-.9.808Z" transform="translate(-320.602 -353.797)" fill="#4f4e50" fill-rule="evenodd"/>
    </g>
  </g>
</svg>
