<svg xmlns="http://www.w3.org/2000/svg" width="81.485" height="21.231" viewBox="0 0 81.485 21.231">
    <defs>
        <style>
            .cls-1{fill:#50b4e9}.cls-2{fill:#28316b}.cls-3{fill:#fff}
        </style>
    </defs>
    <g>
        <g transform="translate(34.425 11.851)">
            <path d="M-5.114-5.7a1.318 1.318 0 0 1-1.123.521A1.329 1.329 0 0 1-7.363-5.7a2.389 2.389 0 0 1-.4-1.479 2.372 2.372 0 0 1 .4-1.474 1.329 1.329 0 0 1 1.126-.518 1.319 1.319 0 0 1 1.123.518 2.4 2.4 0 0 1 .393 1.473 2.419 2.419 0 0 1-.393 1.48m1.335-3.869a2.951 2.951 0 0 0-2.454-1.012 2.948 2.948 0 0 0-2.451 1.01 3.712 3.712 0 0 0-.808 2.391 3.689 3.689 0 0 0 .808 2.4 2.972 2.972 0 0 0 2.451 1 2.975 2.975 0 0 0 2.454-1 3.7 3.7 0 0 0 .806-2.4 3.723 3.723 0 0 0-.806-2.391" class="cls-1" transform="translate(29.108 10.583)"/>
            <path d="M-1.925-4.013q0 1.678.971 1.862A1.323 1.323 0 0 0 .477-2.6a1.8 1.8 0 0 0 .315-.84A3.563 3.563 0 0 0 .8-4.572a2.249 2.249 0 0 0-.4-1 1.064 1.064 0 0 0-.917-.438 1.118 1.118 0 0 0-1.115.61 3.144 3.144 0 0 0-.292 1.388m2.765 2.8v-.412a1.851 1.851 0 0 1-1.177.85A2.4 2.4 0 0 1-1.8-.9a2.725 2.725 0 0 1-1.252-1.079 3.74 3.74 0 0 1-.52-2.084 4.028 4.028 0 0 1 .69-2.446 2.652 2.652 0 0 1 2.22-.938 3.081 3.081 0 0 1 2.162.634 2.706 2.706 0 0 1 .99 2.336v3.435A2.866 2.866 0 0 1-.663 1.9 2.765 2.765 0 0 1-3.427-.19h1.77a1.268 1.268 0 0 0 .595.523 1.254 1.254 0 0 0 .8.1 1.336 1.336 0 0 0 .728-.477 1.993 1.993 0 0 0 .375-1.17" class="cls-1" transform="translate(16.486 7.466)"/>
            <path d="M-4.662-4.746a1.336 1.336 0 0 1-.478 1.157 1.74 1.74 0 0 1-1.009.318.928.928 0 0 1-.589-.192.746.746 0 0 1-.242-.621.766.766 0 0 1 .4-.71 2.5 2.5 0 0 1 .769-.227l.381-.072a2.739 2.739 0 0 0 .448-.115 1.576 1.576 0 0 0 .324-.161zm.849-3.647a4.093 4.093 0 0 0-1.875-.416 2.751 2.751 0 0 0-2.289.845 2.466 2.466 0 0 0-.471 1.38h1.615a1.2 1.2 0 0 1 .238-.587 1.068 1.068 0 0 1 .85-.295 1.724 1.724 0 0 1 .814.151.562.562 0 0 1 .277.542.506.506 0 0 1-.36.476 2.689 2.689 0 0 1-.67.147l-.572.069a4.1 4.1 0 0 0-1.479.413 1.818 1.818 0 0 0-.918 1.708 1.762 1.762 0 0 0 .57 1.405 2.257 2.257 0 0 0 1.445.5c3.651.164 3.611-1.926 3.645-2.359v-2.4a1.6 1.6 0 0 0-.819-1.573" class="cls-1" transform="translate(15.289 8.876)"/>
            <path d="M-5.25-3.983a2.455 2.455 0 0 0-.371-1.462 1.233 1.233 0 0 0-1.062-.512 1.21 1.21 0 0 0-1.037.512 2.466 2.466 0 0 0-.344 1.462 2.178 2.178 0 0 0 .37 1.388 1.226 1.226 0 0 0 1.061.514 1.181 1.181 0 0 0 1.012-.514 2.305 2.305 0 0 0 .371-1.388M-8.064.561a.793.793 0 0 1-.27.6.875.875 0 0 1-.6.225h-.813v-5.833a2.691 2.691 0 0 1 1.016-2.326 3.61 3.61 0 0 1 2.537-.612 2.547 2.547 0 0 1 1.854.894 3.594 3.594 0 0 1 .793 2.436 3.937 3.937 0 0 1-.74 2.485 2.326 2.326 0 0 1-1.9.926 2.54 2.54 0 0 1-1.087-.219 1.852 1.852 0 0 1-.79-.756z" class="cls-1" transform="translate(9.744 7.435)"/>
        </g>
        <g transform="translate(34.426 .556)">
            <path d="M-5.115-5.7a1.322 1.322 0 0 1-1.124.52 1.331 1.331 0 0 1-1.127-.52 2.4 2.4 0 0 1-.4-1.48 2.383 2.383 0 0 1 .4-1.475 1.332 1.332 0 0 1 1.126-.518 1.324 1.324 0 0 1 1.124.518 2.414 2.414 0 0 1 .392 1.475 2.431 2.431 0 0 1-.391 1.48m1.334-3.871a2.953 2.953 0 0 0-2.453-1.011 2.951 2.951 0 0 0-2.452 1.008 3.713 3.713 0 0 0-.808 2.392 3.689 3.689 0 0 0 .808 2.4 2.973 2.973 0 0 0 2.453 1 2.974 2.974 0 0 0 2.453-1 3.694 3.694 0 0 0 .807-2.4 3.719 3.719 0 0 0-.807-2.392" class="cls-2" transform="translate(50.032 12.559)"/>
            <path d="M-4.909-8.023a1.23 1.23 0 0 1-1.077.523 1.181 1.181 0 0 1-1.058-.529 2.706 2.706 0 0 1-.346-1.454 2.567 2.567 0 0 1 .341-1.374 1.174 1.174 0 0 1 1.075-.553 1.272 1.272 0 0 1 .843.3 2.2 2.2 0 0 1 .591 1.723 2.333 2.333 0 0 1-.369 1.363m2.009-6.861s-1.691-.181-1.691 1.178v1.8a2 2 0 0 0-.73-.705 2.05 2.05 0 0 0-1.03-.256 2.448 2.448 0 0 0-2.01.936 4.13 4.13 0 0 0-.753 2.615A3.477 3.477 0 0 0-8.348-7a3.241 3.241 0 0 0 2.4.867A2.714 2.714 0 0 0-2.9-8.781z" class="cls-2" transform="translate(42.933 14.893)"/>
            <path d="M-4.662-4.746a1.341 1.341 0 0 1-.48 1.157 1.74 1.74 0 0 1-1.009.318.925.925 0 0 1-.588-.192.745.745 0 0 1-.242-.621.767.767 0 0 1 .4-.71 2.5 2.5 0 0 1 .77-.227l.381-.072a2.929 2.929 0 0 0 .448-.115 1.576 1.576 0 0 0 .324-.161zm.849-3.647a4.074 4.074 0 0 0-1.874-.416 2.755 2.755 0 0 0-2.29.844 2.457 2.457 0 0 0-.472 1.382h1.615a1.2 1.2 0 0 1 .238-.587 1.065 1.065 0 0 1 .851-.295 1.734 1.734 0 0 1 .814.151.561.561 0 0 1 .275.542.5.5 0 0 1-.36.475 2.629 2.629 0 0 1-.669.148l-.573.069a4.11 4.11 0 0 0-1.479.413 1.819 1.819 0 0 0-.916 1.708 1.762 1.762 0 0 0 .57 1.406 2.259 2.259 0 0 0 1.444.5c3.652.164 3.612-1.924 3.646-2.359v-2.4a1.6 1.6 0 0 0-.819-1.573" class="cls-2" transform="translate(36.301 10.814)"/>
            <path d="M-3.773-1.648a1.086 1.086 0 0 1 .922.387 1.428 1.428 0 0 1 .251.644h1.8a2.457 2.457 0 0 0-.955-1.9 3.668 3.668 0 0 0-2.072-.54 3.028 3.028 0 0 0-2.335.914A3.617 3.617 0 0 0-7 .41a3.567 3.567 0 0 0 .765 2.369 2.949 2.949 0 0 0 2.391.912A2.88 2.88 0 0 0-1.395 2.6a2.7 2.7 0 0 0 .58-1.441h-1.8a1.512 1.512 0 0 1-.315.821 1.082 1.082 0 0 1-.878.316 1.172 1.172 0 0 1-1.187-.8 3.021 3.021 0 0 1-.17-1.127 3.309 3.309 0 0 1 .174-1.181 1.21 1.21 0 0 1 1.218-.836" class="cls-2" transform="translate(27.932 5.084)"/>
            <path d="M-4.071 0c-3.7 0-3.483 3.278-3.483 3.278v3.33h1.679V3.484a2.6 2.6 0 0 1 .193-1.138 1.387 1.387 0 0 1 1.353-.656c.05 0 .117 0 .2.008s.176.011.282.023V.014L-3.992 0h-.079" class="cls-2" transform="translate(24.516 2.025)"/>
            <path d="M-2.53-2.032a1.325 1.325 0 0 1 1-.363 1.462 1.462 0 0 1 .99.343A1.4 1.4 0 0 1-.1-1.044h-2.875a1.738 1.738 0 0 1 .445-.988M-.272 1.1a1.227 1.227 0 0 1-.228.25 1.437 1.437 0 0 1-.939.255 1.587 1.587 0 0 1-.894-.214A1.516 1.516 0 0 1-3.016.058h4.649a8.411 8.411 0 0 0-.056-1.266 3.136 3.136 0 0 0-.508-1.319 2.609 2.609 0 0 0-1.1-.945 3.641 3.641 0 0 0-1.5-.3 3.082 3.082 0 0 0-2.283.884A3.462 3.462 0 0 0-4.7-.344a3.092 3.092 0 0 0 .978 2.554A3.479 3.479 0 0 0-1.473 3a3.1 3.1 0 0 0 2.4-.931A2.254 2.254 0 0 0 1.51 1.1z" class="cls-2" transform="translate(14.548 5.796)"/>
            <path d="M-10.719-7.741h-1.534V-11.6a1.078 1.078 0 0 0-1.129-1.2 1.131 1.131 0 0 0-1.163 1.2v3.863h-1.535V-11.6a1.068 1.068 0 0 0-1.12-1.2 1.125 1.125 0 0 0-1.161 1.2v3.863H-19.9v-3.826a2.634 2.634 0 0 1 2.7-2.8 2.364 2.364 0 0 1 1.907.889 2.447 2.447 0 0 1 1.907-.889 2.561 2.561 0 0 1 2.663 2.8z" class="cls-2" transform="translate(19.896 16.372)"/>
        </g>
        <g>
            <path d="M-34.853-11.4c0-5.376-6.681-9.759-14.92-9.759s-14.919 4.385-14.919 9.759v.572c0 5.7 5.838 10.322 14.918 10.322 9.138 0 14.922-4.617 14.922-10.322z" class="cls-2" transform="translate(64.694 21.157)"/>
            <path d="M-33.51-10.72c0 5.068-6.421 9.177-14.346 9.177S-62.2-5.653-62.2-10.72s6.422-9.18 14.344-9.18 14.346 4.11 14.346 9.178" class="cls-1" transform="translate(62.778 20.475)"/>
            <g transform="translate(.6 3.06)">
                <path d="M-.1-3.879c-.008.015-.151.164-.059.281a1.8 1.8 0 0 0 1.634.3 4.74 4.74 0 0 0 1.482-.938 5.923 5.923 0 0 1 1.694-1.08 1.943 1.943 0 0 1 1.235-.034 3.829 3.829 0 0 1 1.125.658c.982.738 4.929 4.183 5.61 4.779a33.948 33.948 0 0 1 6.308-2.029 7.82 7.82 0 0 0-3-4.712 9.2 9.2 0 0 1-7.769.125A7.556 7.556 0 0 0 5.225-7.2a5.261 5.261 0 0 0-4.079 1.973z" class="cls-3" transform="translate(9.664 7.677)"/>
                <path d="M-25.737-8.665c-.046-.041-4.64-4.062-5.682-4.844a2.547 2.547 0 0 0-1.289-.612 1.765 1.765 0 0 0-.614.06 5.548 5.548 0 0 0-1.678 1 4.8 4.8 0 0 1-1.64 1.016 2.658 2.658 0 0 1-1.808-.272.8.8 0 0 1-.3-.328.56.56 0 0 1 .152-.6l1.269-1.37c.147-.147.3-.295.448-.44a8.525 8.525 0 0 0-1.156.261 5.021 5.021 0 0 1-1.349.252 12.738 12.738 0 0 1-1.376-.214 20.653 20.653 0 0 1-3.658-1.323 8.106 8.106 0 0 0-3.356 4.868c.258.069.675.192.85.23 4.08.907 5.35 1.842 5.581 2.037a1.354 1.354 0 0 1 1.01-.454 1.363 1.363 0 0 1 1.106.578 1.538 1.538 0 0 1 .972-.341 1.811 1.811 0 0 1 .584.1 1.333 1.333 0 0 1 .821.743 1.331 1.331 0 0 1 .568-.122 1.707 1.707 0 0 1 .678.149 1.452 1.452 0 0 1 .8 1.62 1.284 1.284 0 0 1 .163-.009 1.618 1.618 0 0 1 1.616 1.617 1.619 1.619 0 0 1-.193.764 2.575 2.575 0 0 0 1.4.376.9.9 0 0 0 .658-.287c.041-.056.084-.124.043-.173l-1.149-1.279s-.191-.178-.129-.248.183.032.266.1c.584.49 1.3 1.227 1.3 1.227s.06.1.323.149a1.2 1.2 0 0 0 .911-.211 1.427 1.427 0 0 0 .2-.2.106.106 0 0 1-.014.01.612.612 0 0 0-.033-.758l-1.343-1.508s-.193-.178-.128-.251.183.033.266.1c.426.354 1.027.959 1.6 1.524a1.1 1.1 0 0 0 1.29-.045.93.93 0 0 0 .477-.843.968.968 0 0 0-.284-.561l-1.826-1.848s-.194-.166-.126-.249.182.03.265.1c.585.489 2.168 1.94 2.168 1.94a1.111 1.111 0 0 0 1.244-.026.827.827 0 0 0 .41-.657.967.967 0 0 0-.308-.748" class="cls-3" transform="translate(47.859 16.801)"/>
                <path d="M-7.818-3.174a4.149 4.149 0 0 0-.637.141c-.023-.015.018-.129.045-.2s.4-1.192-.512-1.585a1.074 1.074 0 0 0-1.273.191c-.04.04-.056.036-.061-.015a1.006 1.006 0 0 0-.708-.937 1.386 1.386 0 0 0-1.559.555 1 1 0 0 0-.986-.874 1 1 0 0 0-1 1 1 1 0 0 0 1 1 .99.99 0 0 0 .692-.279c.006.006.008.015 0 .034a1.318 1.318 0 0 0 .824 1.514.979.979 0 0 0 .965-.15c.079-.055.091-.032.08.043a.939.939 0 0 0 .7 1.008.889.889 0 0 0 1.045-.194c.089-.081.114-.067.12.058a1.253 1.253 0 0 0 1.256 1.2 1.258 1.258 0 0 0 1.26-1.257 1.264 1.264 0 0 0-1.251-1.253" class="cls-3" transform="translate(21.037 13.649)"/>
                <path d="M-15.44-15.071a1.159 1.159 0 0 1-1.166-1.114c0-.054-.008-.2-.128-.2a.221.221 0 0 0-.142.073.821.821 0 0 1-.573.26 1.015 1.015 0 0 1-.378-.081c-.666-.27-.675-.728-.648-.912a.171.171 0 0 0-.024-.139l-.042-.036h-.041a.2.2 0 0 0-.116.046.973.973 0 0 1-.565.2.863.863 0 0 1-.316-.061 1.223 1.223 0 0 1-.764-1.418.124.124 0 0 0-.038-.116l-.062-.052-.058.056a.9.9 0 0 1-.63.255.913.913 0 0 1-.911-.911.913.913 0 0 1 .912-.91.909.909 0 0 1 .9.8l.032.244.133-.207a1.339 1.339 0 0 1 1.061-.581 1.359 1.359 0 0 1 .394.063.919.919 0 0 1 .646.858c.01.119.094.124.111.124a.148.148 0 0 0 .1-.055.914.914 0 0 1 .67-.283 1.277 1.277 0 0 1 .5.113c.858.368.468 1.458.464 1.468-.073.181-.076.261-.007.306l.034.017h.025a.611.611 0 0 0 .166-.044 1.461 1.461 0 0 1 .457-.1 1.181 1.181 0 0 1 1.169 1.17 1.171 1.171 0 0 1-1.17 1.167m9.08-5.247c-1.414-1.236-4.685-4.08-5.572-4.745a3.874 3.874 0 0 0-1.154-.672 1.929 1.929 0 0 0-.568-.088 2.4 2.4 0 0 0-.72.121 5.9 5.9 0 0 0-1.7 1.072l-.027.023a4.672 4.672 0 0 1-1.447.921 2.455 2.455 0 0 1-.536.06 1.366 1.366 0 0 1-1.006-.324c-.026-.032-.009-.082.049-.158l.008-.01 1.245-1.342a5.183 5.183 0 0 1 4.017-1.945h.106a7.554 7.554 0 0 1 2.787.66 8.62 8.62 0 0 0 3.8.913 9.93 9.93 0 0 0 4.17-1c-.163-.137-.332-.269-.5-.4a9.184 9.184 0 0 1-3.663.833 8.1 8.1 0 0 1-3.554-.857 8.015 8.015 0 0 0-3.035-.717h-.119a5.276 5.276 0 0 0-3.459 1.228 6.858 6.858 0 0 0-1.726.316 4.716 4.716 0 0 1-1.216.233c-.157 0-.437-.014-.462-.015a23.653 23.653 0 0 1-4.374-1.212q-.267.19-.516.389a21.6 21.6 0 0 0 4.74 1.369c.194.015.4.036.609.036a5.229 5.229 0 0 0 1.372-.254c.264-.076.555-.156.861-.216l-.245.245-1.265 1.368a.637.637 0 0 0-.173.7.876.876 0 0 0 .333.369 2.628 2.628 0 0 0 1.342.34 2.319 2.319 0 0 0 .536-.056 4.814 4.814 0 0 0 1.675-1.029 5.586 5.586 0 0 1 1.647-.986 1.914 1.914 0 0 1 .461-.062c.042 0 .081 0 .117.006a2.486 2.486 0 0 1 1.247.6c1.038.78 5.633 4.8 5.678 4.84a.88.88 0 0 1 .275.676.737.737 0 0 1-.367.586 1.123 1.123 0 0 1-.6.187.979.979 0 0 1-.533-.155c-.018-.014-1.591-1.457-2.172-1.941a.479.479 0 0 0-.271-.146.153.153 0 0 0-.122.056c-.091.113.011.269.132.371l1.84 1.847a.875.875 0 0 1 .253.5.839.839 0 0 1-.437.762 1.178 1.178 0 0 1-.651.216.939.939 0 0 1-.525-.16l-.263-.258c-.483-.475-.981-.966-1.344-1.27a.487.487 0 0 0-.274-.142.159.159 0 0 0-.116.05c-.042.046-.071.129.033.266a.876.876 0 0 0 .093.1l1.343 1.507a.516.516 0 0 1 .029.643l-.047.061c-.041.044-.084.084-.124.12a1.07 1.07 0 0 1-.656.208.99.99 0 0 1-.182-.016.441.441 0 0 1-.264-.111l-.016-.018c-.074-.074-.751-.766-1.31-1.233a.469.469 0 0 0-.261-.14.159.159 0 0 0-.121.054c-.112.122.054.3.125.369l1.146 1.262a.264.264 0 0 1-.045.078c-.041.058-.179.2-.594.248a1.364 1.364 0 0 1-.152.008 2.612 2.612 0 0 1-1.121-.333 1.676 1.676 0 0 0 .164-.725 1.71 1.71 0 0 0-1.708-1.709h-.055a1.51 1.51 0 0 0-.865-1.6 1.782 1.782 0 0 0-.714-.157 1.44 1.44 0 0 0-.524.095 1.425 1.425 0 0 0-.835-.71 1.863 1.863 0 0 0-.613-.108 1.61 1.61 0 0 0-.954.3 1.451 1.451 0 0 0-1.124-.542 1.45 1.45 0 0 0-1.019.422c-.356-.273-1.77-1.17-5.552-2.029-.183-.041-.6-.161-.861-.237-.043.2-.074.411-.1.62l.835.2c3.863.859 5.141 1.751 5.357 1.919a1.471 1.471 0 0 0-.112.556 1.451 1.451 0 0 0 1.448 1.449 1.5 1.5 0 0 0 .265-.024 1.687 1.687 0 0 0 1.093 1.261 1.42 1.42 0 0 0 .516.1 1.365 1.365 0 0 0 .33-.041 1.518 1.518 0 0 0 .9.84 1.53 1.53 0 0 0 .569.116 1.277 1.277 0 0 0 .442-.078 1.708 1.708 0 0 0 1.578 1.06 1.7 1.7 0 0 0 1.223-.518 3.232 3.232 0 0 0 1.445.43 1.749 1.749 0 0 0 .22-.012 1.327 1.327 0 0 0 .98-.48.816.816 0 0 0 .06-.1 1.654 1.654 0 0 0 .464.071 1.56 1.56 0 0 0 .935-.333 1.291 1.291 0 0 0 .55-.8.041.041 0 0 0 0-.012 1.536 1.536 0 0 0 .312.032 1.735 1.735 0 0 0 .961-.3 1.388 1.388 0 0 0 .69-1.234 1.65 1.65 0 0 0 .316.033 1.653 1.653 0 0 0 .9-.277 1.312 1.312 0 0 0 .625-1.017 1.366 1.366 0 0 0-.2-.822A37.128 37.128 0 0 1 0-21.74a5.947 5.947 0 0 0-.085-.619 34.05 34.05 0 0 0-6.275 2.041" class="cls-2" transform="translate(28.659 27.974)"/>
            </g>
        </g>
    </g>
</svg>
