<svg xmlns="http://www.w3.org/2000/svg" id="brand" width="92.281" height="22" viewBox="0 0 92.281 22">
    <defs>
        <style>
            .cls-1{fill:#303030}
        </style>
    </defs>
    <path id="Caminho_65" d="M.626 13.662a7.952 7.952 0 0 1 1.68-2.483A7.856 7.856 0 0 1 4.8 9.507 7.561 7.561 0 0 1 7.833 8.9a7.539 7.539 0 0 1 3.046.608 7.937 7.937 0 0 1 2.492 1.672 7.855 7.855 0 0 1 1.693 2.469 7.58 7.58 0 0 1 .608 3.046v7.842h-3.1v-7.844a4.728 4.728 0 0 0-.365-1.834 4.533 4.533 0 0 0-1.016-1.494 4.9 4.9 0 0 0-1.51-1.015 4.8 4.8 0 0 0-1.847-.365A4.728 4.728 0 0 0 6 12.351a4.533 4.533 0 0 0-1.5 1.015 5.006 5.006 0 0 0-1.017 1.492 4.676 4.676 0 0 0-.365 1.834v7.84H.02v-7.839a7.707 7.707 0 0 1 .607-3.031z" class="cls-1" transform="translate(-.02 -2.592)"/>
    <path id="Caminho_66" d="M35.816 19.024l2.2 2.2-1.087 1.087a7.836 7.836 0 0 1-8.529 1.707 7.53 7.53 0 0 1-2.539-1.7 7.417 7.417 0 0 1-1.7-2.595 8.223 8.223 0 0 1-.564-2.947A7.812 7.812 0 0 1 34.352 9.54a7.66 7.66 0 0 1 2.595 1.72l1.087 1.087-8.673 8.673a4.645 4.645 0 0 0 5.4-.9zm-7.771-5.613a4.645 4.645 0 0 0-.9 5.4l1.269-1.27c.564-.564 1.17-1.17 1.8-1.824s1.255-1.241 1.847-1.834 1.058-1.029 1.383-1.354a4.7 4.7 0 0 0-2.806-.451 4.438 4.438 0 0 0-2.6 1.332z" class="cls-1" transform="translate(-7.196 -2.61)"/>
    <path id="Caminho_67" d="M54.735 18.831v3.1h-1.543a7.608 7.608 0 0 1-3.032-.608 7.923 7.923 0 0 1-4.2-4.2 7.608 7.608 0 0 1-.608-3.032V.02h3.1v6.29h6.275v3.1h-6.264v4.681a4.8 4.8 0 0 0 .365 1.847 4.446 4.446 0 0 0 1.016 1.509 4.576 4.576 0 0 0 1.524 1.016 4.8 4.8 0 0 0 1.847.365z" class="cls-1" transform="translate(-13.851 -.02)"/>
    <path id="Caminho_3890" d="M4.781-67.357l15.285.028L11.1-54.85h9.286v3.12l-15.323.03 8.987-12.544H4.781z" class="cls-1" transform="translate(36.883 73.607)"/>
    <path id="Caminho_66-2" d="M35.934 19.82l2.181 2.2c-.436.445-1.084 1.129-1.571 1.534a8.14 8.14 0 0 1-8.159 1.268 7.964 7.964 0 0 1-2.426-1.72 6.881 6.881 0 0 1-1.652-2.485 8.94 8.94 0 0 1-.617-3.048 7.914 7.914 0 0 1 3.438-6.455 7.8 7.8 0 0 1 7.132-.845 8.889 8.889 0 0 1 2.823 1.855l1.011 1.018-8.64 8.66a4.737 4.737 0 0 0 5.316-.816zm-7.759-5.569a4.657 4.657 0 0 0-.914 5.374c1.727-1.781 5.941-5.9 6.262-6.232a4.714 4.714 0 0 0-2.681-.49 4.574 4.574 0 0 0-2.667 1.348z" class="cls-1" transform="translate(34.012 -3.478)"/>
    <path id="Caminho_66-3" d="M35.934 19.82l2.181 2.2c-.436.445-1.084 1.129-1.571 1.534a8.14 8.14 0 0 1-8.159 1.268 7.964 7.964 0 0 1-2.426-1.72 6.881 6.881 0 0 1-1.652-2.485 8.94 8.94 0 0 1-.617-3.048 7.914 7.914 0 0 1 3.438-6.455 7.8 7.8 0 0 1 7.132-.845 8.889 8.889 0 0 1 2.823 1.855l1.011 1.018-8.64 8.66a4.737 4.737 0 0 0 5.316-.816zm-7.759-5.569a4.657 4.657 0 0 0-.914 5.374c1.727-1.781 5.941-5.9 6.262-6.232a4.714 4.714 0 0 0-2.681-.49 4.574 4.574 0 0 0-2.667 1.348z" class="cls-1" transform="translate(49.17 -3.413)"/>
    <g id="Grupo_291" transform="translate(88.152 6.366)">
        <path id="Caminho_3891" d="M546.467 69.529a2.051 2.051 0 1 1 1.47-.6 2.064 2.064 0 0 1-1.47.6zm.011-3.922a1.841 1.841 0 1 0 1.307.543 1.858 1.858 0 0 0-1.307-.544zm.457 2.064l.583.815h-.491l-.524-.748h-.451v.748h-.411v-2.162h.964c.5 0 .832.257.832.688a.645.645 0 0 1-.503.659zm-.347-.975h-.536v.683h.536c.268 0 .427-.131.427-.342s-.16-.342-.428-.342z" class="cls-1" transform="translate(-544.408 -65.4)"/>
    </g>
</svg>
