<svg xmlns="http://www.w3.org/2000/svg" id="PagSeguro_-_Logo" width="63.885" height="16.114" viewBox="0 0 63.885 16.114">
    <defs>
        <style>
            .cls-1{fill:#050708}
        </style>
    </defs>
    <g id="PagSeguro" transform="translate(18.813 4.4)">
        <path id="o" d="M-347 1919.191a3.085 3.085 0 0 1-2.328 3.113 2.807 2.807 0 0 1-1.7-.073 1.628 1.628 0 0 1-1.144-1.666 3.009 3.009 0 0 1 2.3-3.115 3.827 3.827 0 0 1 1.471-.02 1.609 1.609 0 0 1 1.401 1.761zm-1.42.027c-.04-.3-.07-.64-.4-.822a.906.906 0 0 0-.986.051 1.523 1.523 0 0 0-.4.39 2.817 2.817 0 0 0-.493 1.947.682.682 0 0 0 .6.644 1.048 1.048 0 0 0 1.063-.45 3.029 3.029 0 0 0 .613-1.76z" class="cls-1" transform="translate(392.072 -1915.763)"/>
        <path id="r" d="M-571.714 1916.645h1.257l-.111.7a3.681 3.681 0 0 1 .716-.6 3.338 3.338 0 0 1 .966-.217c.051-.008.184.129.174.178-.073.358-.173.71-.263 1.058a1.669 1.669 0 0 0-1.911 1.537c-.146.638-.273 1.281-.42 1.918-.02.086-.108.22-.17.223-.4.02-.809.01-1.252.01z" class="cls-1" transform="translate(609.022 -1914.936)"/>
        <path id="u" d="M-873.435 1924.9l.085-.732a2.049 2.049 0 0 1-1.282.8 2.7 2.7 0 0 1-.965-.065 1.176 1.176 0 0 1-.729-1.508c.2-1.042.435-2.078.651-3.118a.258.258 0 0 1 .3-.245c.355.013.711 0 1.121 0-.108.535-.206 1.017-.3 1.5-.119.583-.245 1.165-.357 1.75s.254.9.824.754a1.113 1.113 0 0 0 .807-.843c.18-.649.311-1.312.459-1.969q.1-.464.192-.933c.034-.181.112-.273.317-.264.354.016.709 0 1.111 0-.108.536-.207 1.019-.3 1.5-.211 1.051-.417 2.1-.636 3.15-.016.08-.114.2-.18.2-.36.032-.717.023-1.118.023z" class="cls-1" transform="translate(907.702 -1918.38)"/>
        <path id="g" d="M-1236.207 1921.655c2.168.782 3.115-.036 3.327-1.623a1.94 1.94 0 0 0-.16.125 1.994 1.994 0 0 1-1.987.492 1.233 1.233 0 0 1-.959-1.186 3.184 3.184 0 0 1 1.428-2.915 4.509 4.509 0 0 1 3.967-.554c-.119.541-.229 1.061-.347 1.58q-.35 1.539-.709 3.075a4.424 4.424 0 0 1-.172.507 2.489 2.489 0 0 1-2.149 1.695 5.972 5.972 0 0 1-2.191-.123c-.233-.055-.351-.14-.244-.4a6.806 6.806 0 0 0 .196-.673zm4.153-4.924a4.127 4.127 0 0 0-.613 0 2.41 2.41 0 0 0-1.858 2.685.492.492 0 0 0 .591.45 1.15 1.15 0 0 0 .62-.238 2.463 2.463 0 0 0 .605-.828c.25-.638.42-1.31.655-2.069z" class="cls-1" transform="translate(1261.903 -1914.201)"/>
        <path id="e" d="M-1497.437 1919.327c-.017.3-.027.549-.052.8a.194.194 0 0 1-.112.122 3.694 3.694 0 0 1-2.923.081 1.505 1.505 0 0 1-.868-1.615 3.361 3.361 0 0 1 2.433-3.087 2.73 2.73 0 0 1 1.528.016 1.1 1.1 0 0 1 .876.872 1.241 1.241 0 0 1-.445 1.2 3.19 3.19 0 0 1-1.731.65 8.545 8.545 0 0 1-.981.067c-.2 0-.257.092-.273.268a.853.853 0 0 0 .85 1.025 2.7 2.7 0 0 0 1.415-.274l.283-.125zm-2.344-1.67a3.125 3.125 0 0 0 1.678-.319.619.619 0 0 0 .28-.745.612.612 0 0 0-.688-.219 1.988 1.988 0 0 0-1.27 1.283z" class="cls-1" transform="translate(1522.527 -1913.952)"/>
        <path id="S" d="M-1809.381 1819.3l-.333 1a8.852 8.852 0 0 0-1.362-.209 2.253 2.253 0 0 0-1.02.253c-.562.295-.547.835 0 1.15.345.2.715.346 1.068.529a1.758 1.758 0 0 1 .966 1 1.888 1.888 0 0 1-.9 2.173 4.176 4.176 0 0 1-2.653.467 7.079 7.079 0 0 1-1.02-.2c-.069-.017-.174-.152-.16-.207.078-.3.187-.6.272-.859a9.181 9.181 0 0 0 1.4.263 2.762 2.762 0 0 0 1.121-.21.732.732 0 0 0 .05-1.371c-.394-.21-.8-.4-1.192-.614a1.515 1.515 0 0 1-.829-1 1.772 1.772 0 0 1 .782-1.834 3.741 3.741 0 0 1 2.365-.557c.467.026.926.14 1.445.226z" class="cls-1" transform="translate(1830.809 -1819.063)"/>
        <path id="g-2" d="M-2132.484 1919.347a6.387 6.387 0 0 0-.837-.139 4.066 4.066 0 0 0-3.041.8 3.118 3.118 0 0 0-1.3 2.783 1.159 1.159 0 0 0 .822 1.13 1.968 1.968 0 0 0 2.058-.434c.078-.073.146-.158.25-.271a6.7 6.7 0 0 1-.269 1 1.529 1.529 0 0 1-1.242 1.027 2.82 2.82 0 0 1-1.66-.2c-.166-.077-.2-.037-.238.117a4.763 4.763 0 0 1-.156.577c-.049.139-.011.2.124.232a5.749 5.749 0 0 0 1.182.2 5.073 5.073 0 0 0 1.542-.128 2.427 2.427 0 0 0 1.775-1.841c.451-1.548.725-3.139 1.094-4.707.028-.111-.02-.126-.104-.146zm-1.358.879a10.561 10.561 0 0 1-.576 1.975 2.159 2.159 0 0 1-.587.787 1.238 1.238 0 0 1-.226.144c-.6.292-1.051.011-1.05-.656a2.466 2.466 0 0 1 1.686-2.353 1.367 1.367 0 0 1 .654-.033c.086.019.122.048.099.136z" class="cls-1" transform="translate(2148.855 -1917.541)"/>
        <path id="a" d="M-2442.392 1918.9a4.9 4.9 0 0 0-2.851.088 3.4 3.4 0 0 0-2.316 3.267 1.336 1.336 0 0 0 1.068 1.406 1.832 1.832 0 0 0 1.458-.3 3.44 3.44 0 0 0 .71-.742c-.043.271-.085.543-.134.813-.021.12 0 .17.142.165.345-.011.691-.011 1.037 0 .134 0 .152-.045.161-.163a8.5 8.5 0 0 1 .1-.863c.205-1.16.5-2.3.742-3.454.022-.117.035-.185-.117-.217zm-1.342.855a7.332 7.332 0 0 1-.735 2.263 2.016 2.016 0 0 1-.549.61.757.757 0 0 1-.834.1.711.711 0 0 1-.311-.717 2.481 2.481 0 0 1 1.656-2.332 1.3 1.3 0 0 1 .674-.035c.056.013.125.008.099.11z" class="cls-1" transform="translate(2453.246 -1917.103)"/>
        <path id="P" d="M-2792 1829.451h-2.384c-.121 0-.177.022-.2.159-.132.669-.281 1.334-.424 2l-.887 4.161c.421 0 .815-.011 1.208.005.166.007.206-.064.234-.2.133-.654.281-1.306.4-1.962.032-.167.1-.186.246-.188a8.805 8.805 0 0 0 1.694-.061 2.217 2.217 0 0 0 1.867-1.6 1.7 1.7 0 0 0-1.754-2.314zm-.089 2.783a1.969 1.969 0 0 1-.848.243 8.307 8.307 0 0 1-.882.017l.434-2.009c.011-.053.011-.107.094-.1a6.433 6.433 0 0 1 .889.025.88.88 0 0 1 .807.639 1.146 1.146 0 0 1-.493 1.185z" class="cls-1" transform="translate(2795.898 -1829.279)"/>
    </g>
    <g id="Logo">
        <path id="linhas" d="M-3940.173 1549.568a8.15 8.15 0 0 1 8.017 8.24 8.028 8.028 0 0 1-8.245 7.872 8.025 8.025 0 0 1-7.808-8.283 8.173 8.173 0 0 1 8.036-7.829z" class="cls-1" transform="translate(3948.214 -1549.568)"/>
        <path id="linhas-2" fill="#a5dad9" d="M-3839.468 1851.473a5.25 5.25 0 0 1-5.829 1.082 5.29 5.29 0 0 1-3.143-5.2 5.286 5.286 0 0 1 4.2-4.8 5.177 5.177 0 0 1 5.093 1.793 3.69 3.69 0 0 0-2.874 3.419 3.68 3.68 0 0 0 2.553 3.706z" transform="translate(3850.082 -1837.667)"/>
        <path id="linhas-3" fill="#dbe361" d="M-3836.34 1588.553a3.829 3.829 0 0 0-1.41-.888 3.508 3.508 0 0 0-1.218-.2.343.343 0 0 1-.309-.148 5.676 5.676 0 0 0-3.548-2.106 5.807 5.807 0 0 0-6.125 3.027c-.03.057-.04.13-.108.166a6.336 6.336 0 0 1 2.658-5.847 6.41 6.41 0 0 1 7.24-.12 6.335 6.335 0 0 1 2.82 6.116z" transform="translate(3850.724 -1580.855)"/>
        <path id="linhas-4" fill="#f4e03e" d="M-3419.98 1991.981a3.179 3.179 0 0 1-3.173-3.173 3.179 3.179 0 0 1 3.238-3.173 3.187 3.187 0 0 1 3.124 3.184 3.187 3.187 0 0 1-3.189 3.162z" transform="translate(3431.726 -1978.515)"/>
    </g>
</svg>
