<svg xmlns="http://www.w3.org/2000/svg" id="PayPal_-_Logo" width="56.848" height="13.793" viewBox="0 0 56.848 13.793">
    <defs>
        <style>
            .cls-1{fill:#009cde}.cls-2{fill:#003087}
        </style>
    </defs>
    <g id="PayPal" transform="translate(16.663 3.084)">
        <path id="l" d="M121.755 7.152l-1.283 8.162a.26.26 0 0 0 .257.3h1.29a.434.434 0 0 0 .429-.366l1.265-8.016a.261.261 0 0 0-.257-.3h-1.444a.262.262 0 0 0-.257.22z" class="cls-1" transform="translate(-83.531 -6.932)"/>
        <path id="a" d="M110.564 13.256h-1.5a.26.26 0 0 0-.257.22l-.066.418-.1-.152a2.129 2.129 0 0 0-1.768-.627 3.441 3.441 0 0 0-3.341 3.01 2.828 2.828 0 0 0 .557 2.3 2.342 2.342 0 0 0 1.885.761 2.867 2.867 0 0 0 2.072-.856l-.067.416a.261.261 0 0 0 .257.3h1.348a.435.435 0 0 0 .429-.366l.809-5.124a.26.26 0 0 0-.258-.3zm-2.086 2.913a1.668 1.668 0 0 1-1.689 1.429 1.158 1.158 0 0 1-1.24-1.455 1.675 1.675 0 0 1 1.677-1.44 1.259 1.259 0 0 1 1 .408 1.288 1.288 0 0 1 .252 1.058z" class="cls-1" transform="translate(-74.105 -10.364)"/>
        <path id="P" d="M92.38 6.933h-3.126a.435.435 0 0 0-.429.367l-1.264 8.015a.26.26 0 0 0 .258.3h1.6a.3.3 0 0 0 .3-.256l.359-2.272a.434.434 0 0 1 .429-.367h.993a3.21 3.21 0 0 0 3.558-2.971 2.406 2.406 0 0 0-.4-2.018 2.9 2.9 0 0 0-2.278-.798zm.361 2.927c-.171 1.122-1.028 1.122-1.857 1.122h-.472l.331-2.095a.261.261 0 0 1 .257-.22h.216c.565 0 1.1 0 1.372.322a1.041 1.041 0 0 1 .153.871z" class="cls-1" transform="translate(-65.263 -6.933)"/>
        <path id="y" d="M78.5 13.432H77a.435.435 0 0 0-.36.19l-2.075 3.057-.88-2.937a.434.434 0 0 0-.416-.31h-1.481a.261.261 0 0 0-.247.344l1.659 4.863-1.558 2.2a.261.261 0 0 0 .213.411h1.5a.435.435 0 0 0 .357-.187l5-7.221a.261.261 0 0 0-.212-.41z" class="cls-2" transform="translate(-56.365 -10.54)"/>
        <path id="a-2" d="M60.456 13.256h-1.5a.26.26 0 0 0-.258.22l-.065.418-.105-.152a2.129 2.129 0 0 0-1.768-.627 3.442 3.442 0 0 0-3.341 3.01 2.826 2.826 0 0 0 .557 2.3 2.342 2.342 0 0 0 1.885.761 2.867 2.867 0 0 0 2.072-.856l-.067.416a.261.261 0 0 0 .257.3h1.348a.435.435 0 0 0 .429-.366l.808-5.124a.26.26 0 0 0-.252-.3zm-2.086 2.913a1.668 1.668 0 0 1-1.689 1.431 1.159 1.159 0 0 1-1.24-1.455 1.675 1.675 0 0 1 1.678-1.44 1.26 1.26 0 0 1 1 .408 1.29 1.29 0 0 1 .251 1.056z" class="cls-2" transform="translate(-46.291 -10.364)"/>
        <path id="P-2" d="M42.272 6.933h-3.126a.435.435 0 0 0-.429.367l-1.264 8.015a.26.26 0 0 0 .258.3H39.2a.434.434 0 0 0 .429-.366l.341-2.162a.435.435 0 0 1 .429-.367h.989a3.211 3.211 0 0 0 3.558-2.971 2.41 2.41 0 0 0-.4-2.018 2.9 2.9 0 0 0-2.274-.798zm.361 2.927c-.171 1.122-1.028 1.122-1.857 1.122H40.3l.331-2.095a.261.261 0 0 1 .258-.22h.216c.564 0 1.1 0 1.372.322a1.044 1.044 0 0 1 .156.871z" class="cls-2" transform="translate(-37.45 -6.933)"/>
    </g>
    <g id="PP_logo">
        <path id="bg" d="M10.534 3.5a2.739 2.739 0 0 0-.582-2.46A4.258 4.258 0 0 0 6.682 0H2.4a.614.614 0 0 0-.606.518L0 11.837a.368.368 0 0 0 .364.425h2.65l-.183 1.159a.322.322 0 0 0 .319.372h2.231a.537.537 0 0 0 .53-.453l.022-.113.42-2.665.027-.147a.537.537 0 0 1 .53-.453h.334c2.161 0 3.853-.877 4.347-3.417a2.908 2.908 0 0 0-.446-2.569 2.142 2.142 0 0 0-.611-.471" class="cls-1"/>
        <path id="bg-2" fill="#012169" d="M10.534 3.5a2.739 2.739 0 0 0-.582-2.46A4.258 4.258 0 0 0 6.682 0H2.4a.614.614 0 0 0-.606.518L0 11.837a.368.368 0 0 0 .364.425h2.65l.665-4.216-.02.133a.611.611 0 0 1 .6-.518H5.52c2.47 0 4.4-1 4.97-3.906.016-.086.031-.169.044-.251"/>
        <path id="bg-3" d="M4.394 3.518a.536.536 0 0 1 .53-.453h3.36a7 7 0 0 1 1.109.081q.145.023.283.054t.267.068l.127.04a3.034 3.034 0 0 1 .465.2 2.739 2.739 0 0 0-.582-2.468A4.262 4.262 0 0 0 6.682 0H2.4a.614.614 0 0 0-.606.518L0 11.837a.368.368 0 0 0 .364.425h2.65l.665-4.216z" class="cls-2"/>
    </g>
</svg>
