<svg xmlns="http://www.w3.org/2000/svg" width="114" height="84.636" viewBox="0 0 114 84.636">
    <g>
        <path d="M113.816 23.547c-1.053-5.819-6.073-10.051-11.9-11.373C93.2 10.322 77.057 9 59.6 9s-33.844 1.322-42.575 3.174C11.2 13.5 6.171 17.464 5.119 23.547A173.318 173.318 0 0 0 3 51.318 143.964 143.964 0 0 0 5.375 79.09c1.066 5.819 6.086 10.051 11.9 11.373 9.257 1.851 25.126 3.174 42.588 3.174s33.331-1.322 42.588-3.174c5.816-1.322 10.836-5.29 11.9-11.373A203.279 203.279 0 0 0 117 51.318a185.329 185.329 0 0 0-3.184-27.771zm-68.5 46.286V32.8l32.27 18.518z" opacity="0.5" transform="translate(-3 -9)"/>
        <path fill="#fff" d="M45.318 69.832V32.8l32.268 18.518z" transform="translate(-3 -9)"/>
    </g>
</svg>
