<svg xmlns="http://www.w3.org/2000/svg" id="Google_Safe_Browsing" width="122.445" height="40" viewBox="0 0 122.445 40">
    <defs>
        <clipPath id="clip-path">
            <path id="Caminho_21" d="M606 191.2c-6.615 0-12.343 2.718-14.664 3.567v3.851c0 10.7.041 18.1 6.267 24.321a76.968 76.968 0 0 0 8.234 6.328 75.8 75.8 0 0 0 8.283-6.328c6.238-6.238 6.218-12.79 6.218-22.892v-5.328c-2.899-.894-8.105-3.519-14.338-3.519z" class="cls-1" transform="translate(-591.34 -191.2)"/>
        </clipPath>
        <clipPath id="clip-path-2">
            <path d="M628.493 388.878a15.282 15.282 0 0 0 2.088 4.165 47.141 47.141 0 0 0 4.379 4.716 49.8 49.8 0 0 0 4.3-4.716 15.059 15.059 0 0 0 2.119-4.337c1.227-3.06-14.111-2.306-12.886.172z" class="cls-1" transform="translate(-628.423 -386.702)"/>
        </clipPath>
        <linearGradient id="linear-gradient" x1=".5" x2=".5" y1="-.157" y2=".669" gradientUnits="objectBoundingBox">
            <stop offset="0" stop-color="#263238" stop-opacity=".349"/>
            <stop offset=".42" stop-color="#263238" stop-opacity=".149"/>
            <stop offset=".89" stop-color="#263238" stop-opacity=".02"/>
            <stop offset="1" stop-color="#263238" stop-opacity="0"/>
        </linearGradient>
        <style>
            .cls-1{fill:none}.cls-2{fill:#fcfcfc}.cls-9{fill:#fafafa}.cls-11{fill:#fff}
        </style>
    </defs>
    <g transform="translate(37 3.667)">
        <path d="M79.883 29.3a4.316 4.316 0 1 1-4.317-4.3 4.249 4.249 0 0 1 4.317 4.3zm-1.89 0a2.433 2.433 0 1 0-2.426 2.607 2.478 2.478 0 0 0 2.426-2.607z" class="cls-2" transform="translate(-57.498 -20.241)"/>
        <path d="M127.883 29.3a4.316 4.316 0 1 1-4.316-4.3 4.249 4.249 0 0 1 4.316 4.3zm-1.89 0a2.433 2.433 0 1 0-2.427 2.607 2.478 2.478 0 0 0 2.427-2.607z" class="cls-2" transform="translate(-96.188 -20.241)"/>
        <path d="M175.477 25.26v7.725c0 3.178-1.874 4.475-4.089 4.475a4.1 4.1 0 0 1-3.814-2.535l1.645-.685a2.377 2.377 0 0 0 2.167 1.527c1.418 0 2.3-.875 2.3-2.522v-.619h-.066a2.93 2.93 0 0 1-2.266.978 4.306 4.306 0 0 1 0-8.6 2.981 2.981 0 0 1 2.266.962h.066v-.7h1.794zm-1.661 4.058a2.424 2.424 0 0 0-2.3-2.623 2.617 2.617 0 0 0 0 5.214 2.4 2.4 0 0 0 2.3-2.592z" class="cls-2" transform="translate(-134.858 -20.241)"/>
        <path d="M217.343 3v12.609H215.5V3z" class="cls-2" transform="translate(-173.765 -2.509)"/>
        <path d="M235.479 30.711l1.467.978a4.283 4.283 0 0 1-3.585 1.907 4.21 4.21 0 0 1-4.27-4.3 4.089 4.089 0 0 1 4.058-4.3 4 4 0 0 1 3.682 2.737l.2.489-5.756 2.378a2.189 2.189 0 0 0 2.085 1.3 2.456 2.456 0 0 0 2.119-1.189zm-4.514-1.548l3.844-1.6a1.666 1.666 0 0 0-1.6-.912 2.36 2.36 0 0 0-2.244 2.512z" class="cls-2" transform="translate(-184.72 -20.233)"/>
        <path d="M7.136 8.412V6.586h6.152a6.048 6.048 0 0 1 .091 1.1 6.029 6.029 0 0 1-1.581 4.27 6.111 6.111 0 0 1-4.66 1.874A6.775 6.775 0 0 1 .36 7.151 6.775 6.775 0 0 1 7.138.47a6.366 6.366 0 0 1 4.578 1.841L10.428 3.6a4.653 4.653 0 0 0-3.292-1.3 4.792 4.792 0 0 0-4.792 4.851 4.792 4.792 0 0 0 4.792 4.856 4.471 4.471 0 0 0 3.373-1.336A3.783 3.783 0 0 0 11.5 8.41z" class="cls-2" transform="translate(-.36 -.47)"/>
    </g>
    <path fill="#e5e5e5" d="M8.434-59.913a4.429 4.429 0 0 1-3.056-.916 3.2 3.2 0 0 1-1.065-2.354h1.233a2 2 0 0 0 .9 1.6 3.491 3.491 0 0 0 1.935.518 3.049 3.049 0 0 0 1.731-.441 1.376 1.376 0 0 0 .656-1.2 1.222 1.222 0 0 0-.679-1.16 9.8 9.8 0 0 0-2.337-.716 5.4 5.4 0 0 1-2.38-.979 2.1 2.1 0 0 1-.722-1.668 2.357 2.357 0 0 1 .94-1.925 3.879 3.879 0 0 1 2.5-.752 4.259 4.259 0 0 1 2.637.758 2.685 2.685 0 0 1 1.062 2.143h-1.252q-.191-1.754-2.4-1.754a2.9 2.9 0 0 0-1.655.4A1.238 1.238 0 0 0 5.9-67.29a1.01 1.01 0 0 0 .471.91 5.979 5.979 0 0 0 1.76.587 16.607 16.607 0 0 1 2.047.56 3.277 3.277 0 0 1 1.3.86 2.213 2.213 0 0 1 .541 1.566 2.581 2.581 0 0 1-.992 2.07 3.917 3.917 0 0 1-2.593.824zm9.626-2v-1.549h-.851q-2.7 0-2.7 1.47a.953.953 0 0 0 .4.821 1.784 1.784 0 0 0 1.068.287 2.7 2.7 0 0 0 1.187-.277 2.278 2.278 0 0 0 .895-.756zm0 1.121a3.447 3.447 0 0 1-2.446.883 2.578 2.578 0 0 1-1.714-.564 1.81 1.81 0 0 1-.673-1.454q0-2.453 4.226-2.453h.607a5.331 5.331 0 0 0-.079-1.091.905.905 0 0 0-.441-.564 2.27 2.27 0 0 0-1.154-.224q-1.661 0-1.714 1.187h-1.24q.138-2.156 3.02-2.156a3.572 3.572 0 0 1 2.1.534 2.43 2.43 0 0 1 .752 2.1v4.523h-1.24zM22.6-66.1v6.019h-1.24V-66.1h-1.033v-.976h1.028v-.62q0-2.215 1.958-2.215a4.206 4.206 0 0 1 .93.079v1.081a4.268 4.268 0 0 0-.752-.066.849.849 0 0 0-.676.254 1.351 1.351 0 0 0-.221.88v.606h1.326v.976zm5.268 6.184a3.3 3.3 0 0 1-2.479-.966 3.708 3.708 0 0 1-.936-2.693 3.786 3.786 0 0 1 .907-2.687 3.09 3.09 0 0 1 2.37-.972 3.115 3.115 0 0 1 2.39.956 3.809 3.809 0 0 1 .893 2.7v.3H25.74a2.7 2.7 0 0 0 .669 1.8 1.981 1.981 0 0 0 1.454.587 2.149 2.149 0 0 0 1.177-.333 1.121 1.121 0 0 0 .55-.946h1.286a2.32 2.32 0 0 1-.976 1.67 3.444 3.444 0 0 1-2.037.587zm1.832-4.335a2.535 2.535 0 0 0-.679-1.51 1.806 1.806 0 0 0-1.292-.5 1.81 1.81 0 0 0-1.279.5 2.478 2.478 0 0 0-.679 1.513zm13.68 1.365a2.492 2.492 0 0 1-.923 2.083 4.273 4.273 0 0 1-2.683.725H36.15v-9.665h3.442a3.976 3.976 0 0 1 2.426.659 2.131 2.131 0 0 1 .883 1.806 2.188 2.188 0 0 1-1.391 2.07 2.386 2.386 0 0 1 1.4.874 2.391 2.391 0 0 1 .465 1.447zm-5.947-2.809h2.149a2.83 2.83 0 0 0 1.562-.34 1.266 1.266 0 0 0 .5-1.131 1.245 1.245 0 0 0-.488-1.071 2.963 2.963 0 0 0-1.696-.363h-2.031zm0 4.47h2.327q2.294 0 2.294-1.661a1.477 1.477 0 0 0-.531-1.263 3.371 3.371 0 0 0-1.928-.4h-2.166zm11.195-4.714a2.785 2.785 0 0 0-.758-.079 1.954 1.954 0 0 0-1.628 1v4.945h-1.251v-7h1.246v.976a2.221 2.221 0 0 1 1.82-1.134 3.321 3.321 0 0 1 .567.053zm3.7-1.292a3.115 3.115 0 0 1 2.39.956 3.81 3.81 0 0 1 .893 2.7 3.812 3.812 0 0 1-.893 2.7 3.109 3.109 0 0 1-2.39.959 3.1 3.1 0 0 1-2.383-.959 3.812 3.812 0 0 1-.893-2.7 3.809 3.809 0 0 1 .893-2.7 3.107 3.107 0 0 1 2.383-.956zm0 6.342a1.778 1.778 0 0 0 1.444-.676 3.111 3.111 0 0 0 .554-2.008 3.123 3.123 0 0 0-.554-2.014 1.778 1.778 0 0 0-1.444-.676 1.778 1.778 0 0 0-1.444.676 3.123 3.123 0 0 0-.554 2.014 3.111 3.111 0 0 0 .554 2.008 1.778 1.778 0 0 0 1.444.676zm13.436-6.184l-2.1 7h-1.195l-1.516-5.147-1.51 5.143h-1.187l-2.11-7h1.378l1.286 5.334 1.576-5.334h1.134l1.58 5.338 1.285-5.334zm3.488 7.16q-2.868 0-3-2.255h1.246q.013 1.279 1.74 1.279a1.868 1.868 0 0 0 1.177-.32.981.981 0 0 0 .405-.8.685.685 0 0 0-.4-.669 9.95 9.95 0 0 0-1.632-.5 6.01 6.01 0 0 1-1.806-.692 1.5 1.5 0 0 1-.57-1.345 1.773 1.773 0 0 1 .709-1.441 2.935 2.935 0 0 1 1.9-.57q2.749 0 2.809 1.958h-1.245q-.066-.989-1.483-.989a2.057 2.057 0 0 0-1.038.238.756.756 0 0 0-.412.692.628.628 0 0 0 .316.59 7.913 7.913 0 0 0 1.586.488 6.131 6.131 0 0 1 1.886.715 1.565 1.565 0 0 1 .616 1.411 1.972 1.972 0 0 1-.761 1.586 3.113 3.113 0 0 1-2.047.63zm5.5-.165H73.5v-7h1.246zm0-8.32H73.5v-1.345h1.246zm3.079 2.215a2.75 2.75 0 0 1 2.09-1.048q2.367 0 2.367 2.578v4.575h-1.253V-64.6a1.957 1.957 0 0 0-.307-1.233 1.227 1.227 0 0 0-1.005-.376 2.6 2.6 0 0 0-1.9 1.121v5.011h-1.245v-7h1.246zm11.933 5.564q0 3.376-3.046 3.376a3.383 3.383 0 0 1-2.08-.574 1.832 1.832 0 0 1-.761-1.543h1.286q0 1.147 1.543 1.147a1.812 1.812 0 0 0 1.345-.478 2.712 2.712 0 0 0 .475-1.876v-.349a2.515 2.515 0 0 1-2 1 2.523 2.523 0 0 1-2.123-.976 4.209 4.209 0 0 1-.752-2.63 4.081 4.081 0 0 1 .841-2.713 2.647 2.647 0 0 1 2.113-1 2.782 2.782 0 0 1 1.919.7v-.541h1.24zm-1.24-1.47v-3.323a2.469 2.469 0 0 0-1.839-.85 1.48 1.48 0 0 0-1.276.689 3.615 3.615 0 0 0-.478 2.054 3.512 3.512 0 0 0 .452 1.961 1.427 1.427 0 0 0 1.249.669 2.366 2.366 0 0 0 1.892-1.2z" transform="translate(32.687 93.576)"/>
    <g>
        <path fill="#66bb6a" d="M591.33 225.022v3.851c0 3.522 0 6.685.229 9.595.456 5.848 1.84 10.55 6.018 14.726a76.52 76.52 0 0 0 8.254 6.328v-34.5c-6.09 0-12.181-.85-14.501 0z" transform="translate(-591.33 -219.523)"/>
        <path fill="#388e3c" d="M655.831 227.974c-14.447-.027-8.411 0-14.5 0v34.548a75.8 75.8 0 0 0 8.283-6.328c6.238-6.238 6.218-12.79 6.218-22.891z" transform="translate(-626.829 -222.524)"/>
        <g clip-path="url(#clip-path)" transform="translate(.003 1.929)">
            <path fill="url(#linear-gradient)" d="M0 0H31.38V2.581H0z" transform="translate(-1.12 3.564)"/>
        </g>
        <g clip-path="url(#clip-path-2)" transform="translate(7.985 23.32)">
            <path d="M4.716 0a4.716 4.716 0 0 1 4.716 4.716c0 2.6-9.432 2.6-9.432 0A4.716 4.716 0 0 1 4.716 0z" class="cls-9" transform="translate(1.931 6.968)"/>
            <path d="M613.89 285.718a8.089 8.089 0 0 1 13.281-6.2c1.761 1.462-13.281 10.667-13.281 6.2zm8.089-6.505a6.505 6.505 0 0 0-6.505 6.505c0 3.593 13.01 3.593 13.01 0a6.514 6.514 0 0 0-6.505-6.506z" class="cls-9" transform="translate(-615.332 -273.953)"/>
            <path d="M601.95 277.242a11.552 11.552 0 1 1 23.1 0c-.003 6.377-23.1 6.379-23.1 0zm11.552-9.89a9.89 9.89 0 0 0-9.89 9.89c0 5.462 19.78 5.462 19.78 0a9.9 9.9 0 0 0-9.89-9.887z" class="cls-9" transform="translate(-606.855 -265.477)"/>
        </g>
        <path fill="#e0e0e0" d="M620.339 189.4v-2.958a3.151 3.151 0 0 0-2.784-2.552h-23.674a2.886 2.886 0 0 0-2.541 2.552v2.958h29z" transform="translate(-591.337 -183.89)"/>
        <circle cx=".853" cy=".853" r=".853" class="cls-11" transform="translate(2.726 2.057)"/>
        <circle cx=".853" cy=".853" r=".853" class="cls-11" transform="translate(5.847 2.057)"/>
        <circle cx="4.78" cy="4.78" r="4.78" class="cls-9" transform="translate(9.626 11.233)"/>
    </g>
</svg>
