<svg xmlns="http://www.w3.org/2000/svg" id="Yapay_-_Logo" width="57.418" height="16.182" viewBox="0 0 57.418 16.182">
    <defs>
        <style>
            .cls-1{fill:#092459}
        </style>
    </defs>
    <path id="y" d="M263.749 16.929c.5-1.146 1.176-2.671 1.525-3.428a2.18 2.18 0 0 0-.01-2.043c-1.405-3.119-2.761-6.269-4.136-9.418-.06-.13.1-.528.1-.528h.578c2.023 0 1.824-.06 2.621 1.724.887 1.993 1.754 3.987 2.661 6.06.508-1.166 1-2.252 1.475-3.349.4-.917 1.116-2.611 1.545-3.618a1.338 1.338 0 0 1 1.236-.817h1.894s-4.316 9.967-6.349 14.591c-.6 1.4-1.794 1.724-3.139.827z" class="cls-1" transform="translate(-215.819 -1.249)"/>
    <path id="a" d="M206.739 1.2a1.884 1.884 0 0 1 1.884-.937c.339 0 .449.1.439.428-.01 1.086-.01 2.173-.01 3.259 0 2.382.01 6.757.01 7.146s-.08.588-.548.578a1.9 1.9 0 0 1-1.794-.957 5.384 5.384 0 0 1-4.894 1.027 5.8 5.8 0 0 1-3.359-2.322 6.008 6.008 0 0 1 .558-7.614 5.793 5.793 0 0 1 7.714-.608zm-3.428 8.173a3.414 3.414 0 0 0 .1-6.827 3.414 3.414 0 1 0-.1 6.827z" class="cls-1" transform="translate(-163.125)"/>
    <path id="p" d="M133.14 15.914h-1.385s-.01-13.067-.01-15.06c0-.458.13-.608.588-.588a1.88 1.88 0 0 1 1.754.937 5.8 5.8 0 0 1 7.884.827 5.99 5.99 0 0 1 .189 7.664 5.819 5.819 0 0 1-7.824 1.266v3.767a1.191 1.191 0 0 1-1.2 1.186zm4.325-6.528a3.414 3.414 0 1 0-3.4-3.419 3.414 3.414 0 0 0 3.401 3.419z" class="cls-1" transform="translate(-108.891 -.014)"/>
    <path id="a-2" d="M68.894 1.2a1.923 1.923 0 0 1 1.894-.944c.339 0 .449.11.439.439-.01 1.086-.01 8.023 0 10.415 0 .419-.08.588-.548.578a1.9 1.9 0 0 1-1.794-.957 5.385 5.385 0 0 1-4.894 1.027 5.8 5.8 0 0 1-3.359-2.322 6.008 6.008 0 0 1 .558-7.615 5.769 5.769 0 0 1 7.704-.621zm-3.428 8.176a3.414 3.414 0 0 0 .1-6.827 3.414 3.414 0 1 0-.1 6.827z" class="cls-1" transform="translate(-49.2 -.004)"/>
    <path id="y-2" d="M2.88 16.788c.5-1.146 1.186-2.631 1.525-3.428a2.207 2.207 0 0 0-.01-2.043C2.99 8.2 0 1.34 0 1.34h.877c2.023 0 1.894-.03 2.691 1.76.887 2 1.754 3.99 2.661 6.063C6.737 8 7.226 6.911 7.7 5.815 8.1 4.9 8.821 3.2 9.249 2.2a1.337 1.337 0 0 1 1.236-.817h1.894S8.063 11.346 6.03 15.971c-.608 1.385-1.8 1.714-3.15.817z" class="cls-1" transform="translate(0 -1.107)"/>
</svg>
